<?xml version="1.0" encoding="UTF-8"?>
<svg version="1.1" xmlns="http://www.w3.org/2000/svg" width="500" height="500">
<path d="M0 0 C165 0 330 0 500 0 C500 165 500 330 500 500 C335 500 170 500 0 500 C0 335 0 170 0 0 Z " fill="#1E8EE1" transform="translate(0,0)"/>
<path d="M0 0 C165 0 330 0 500 0 C500 165 500 330 500 500 C447.86 500 395.72 500 342 500 C341.34 498.68 340.68 497.36 340 496 C338.9892225 494.84716728 337.94411381 493.72394955 336.875 492.625 C326.66105588 481.19307509 320.52822969 466.77194813 320.7890625 451.3828125 C321.88937907 438.9533105 328.97268793 429.65448298 337.33984375 420.93359375 C341.32038693 418.04024739 344.61911598 417.71750631 349.4753418 418.29370117 C352.29020158 418.76051506 355.07981131 419.3023087 357.875 419.875 C375.15875736 423.30337868 392.88908801 425.40714182 410 420 C411.33611328 419.59974609 411.33611328 419.59974609 412.69921875 419.19140625 C420.47014939 416.51382678 427.09362023 411.54022455 431.5625 404.5625 C435.76673836 394.66219676 433.20290364 382.48029385 430.43920898 372.546875 C428.17267848 364.31768921 427.6861406 356.61619315 432 349 C433.20386114 347.45905773 434.43465387 345.93888646 435.6875 344.4375 C438.16167691 341.39074287 438.96996987 340.15265314 439.75 336.1875 C438.80967142 332.19110352 437.28817351 331.30172146 434 329 C434 328.01 434 327.02 434 326 C436.10384698 325.18667257 438.20808857 324.37436583 440.3125 323.5625 C441.48425781 323.11003906 442.65601563 322.65757812 443.86328125 322.19140625 C445.89382815 321.42015245 447.93937926 320.68687358 450 320 C449.56797727 315.93898631 448.86489354 312.45607039 447.4375 308.625 C445.49448126 303.01608875 444.88842507 297.77893732 447.125 292.1875 C451.60831141 286.95697002 457.44632121 284.89910779 463.75 282.625 C474.2845647 278.63929357 484.60931433 274.62735174 490 264 C491.10200751 259.63929544 491.01135136 255.98873943 488.953125 251.94140625 C487.42824465 249.81257048 485.77701067 247.92356825 484 246 C483.32324219 245.23042969 482.64648438 244.46085938 481.94921875 243.66796875 C478.85399193 240.17690475 475.71134673 236.74112403 472.48046875 233.375 C456.28215098 216.25604052 449.41963178 197.92006408 449.796875 174.70703125 C449.95795456 169.56590868 450.72304189 164.58855378 451.54296875 159.515625 C455.86968652 126.23318064 440.67540387 97.14435353 421.0625 71.375 C416.64225254 65.66386141 411.95283306 60.25407872 407 55 C406.35160156 54.28714844 405.70320313 53.57429688 405.03515625 52.83984375 C377.8883682 24.12990092 337.10801254 7.05512338 297.92245483 5.686203 C278.98304052 5.17151903 260.4854167 5.45336457 242 10 C240.39065676 10.36602508 238.78128201 10.73191164 237.171875 11.09765625 C204.70181192 18.79433787 173.12134774 33.63244438 149 57 C148.319375 57.60714844 147.63875 58.21429688 146.9375 58.83984375 C137.41763282 67.6345648 128.15581428 81.54709037 126.5625 94.578125 C126.32714055 101.49180879 126.64796051 107.41420477 131 113 C137.50476489 119.80731209 144.42086872 121.16889183 153.5625 121.4375 C167.63829041 121.27147701 179.23302084 116.89325595 191.55541992 110.44189453 C196.85891923 107.72705055 201.922609 105.5583442 208 106 C211.2021325 107.32240931 212.69079463 108.38158925 214.25 111.5 C217.92785971 120.57010024 217.48094803 132.39883495 214 141.4375 C211.03597381 147.47378929 207.22865459 152.79078783 203 158 C202.3090625 158.8559375 201.618125 159.711875 200.90625 160.59375 C193.49500094 169.29391194 184.80994145 177.53175722 173.1875 178.8125 C159.59020498 180.49536599 145.51715973 184.54933895 136 195 C129.928379 203.32399653 126.95026812 211.64035099 128 222 C129.29008797 230.09817595 132.806773 235.65575666 139 241 C145.73530147 245.72362352 153.03046571 245.8620281 161 245 C167.85726185 243.79347109 174.6811264 242.15404478 181.2578125 239.8671875 C190.10820197 237.06834638 200.10908389 242.03970143 208 246 C217.7922294 251.75444592 225.44422827 259.37859053 229.34375 270.203125 C232.86356271 285.20423156 227.500144 299.22259458 220.18847656 312.10791016 C217.12694827 316.98195376 213.10855426 320.99868369 209 325 C208.16082031 325.84175781 207.32164062 326.68351562 206.45703125 327.55078125 C197.51451326 336.46486516 187.88647738 343.34237963 177.42529297 350.35791016 C173.7442138 352.85025347 170.12138312 355.42202282 166.5 358 C160.50537592 362.258653 154.45676936 366.42938292 148.375 370.5625 C140.10850354 376.19204655 132.01173202 382.01477723 124 388 C123.34402832 388.48855469 122.68805664 388.97710937 122.01220703 389.48046875 C96.96860038 408.12478246 96.96860038 408.12478246 73.45214844 428.63134766 C72.03950182 429.96276947 70.61752845 431.28427371 69.1953125 432.60546875 C63.22808204 438.31594894 57.43873296 443.99844423 56.6875 452.5625 C56.8421875 453.7690625 56.8421875 453.7690625 57 455 C61.60680804 455.32140521 65.44982476 454.73575544 69.9375 453.625 C104.14150417 445.35805283 134.30515909 452.59986962 163.89868164 470.46606445 C171.2977481 475.0389526 178.32087944 480.06681154 185.31933594 485.22631836 C190.88406001 489.29429426 196.60511135 492.94296399 202.58227539 496.37329102 C204.0674728 497.2272744 205.5359091 498.11031645 207 499 C207 499.33 207 499.66 207 500 C138.69 500 70.38 500 0 500 C0 335 0 170 0 0 Z " fill="#E9FAFE" transform="translate(0,0)"/>
<path d="M0 0 C17.25462264 14.19331862 20.61585421 37.92280101 24.9296875 58.50390625 C27.83990083 72.15609968 32.6088871 83.17374855 44.50439453 91.29516602 C47.32771348 93.005422 50.17931121 94.64284977 53.0625 96.25 C67.8913792 104.65335954 67.8913792 104.65335954 72.5 111.1875 C73.06976563 111.97511719 73.63953125 112.76273437 74.2265625 113.57421875 C78.45008113 121.07046391 79.38209651 128.45171841 79.875 136.9375 C80.40623582 146.04698696 81.24145023 155.26028107 86.4375 163.0625 C86.85128906 163.70316406 87.26507813 164.34382812 87.69140625 165.00390625 C88.82184649 166.65008493 88.82184649 166.65008493 90.875 167.5 C90.875 168.16 90.875 168.82 90.875 169.5 C92.29101714 169.98108275 93.70784437 170.45978141 95.125 170.9375 C95.91390625 171.20433594 96.7028125 171.47117187 97.515625 171.74609375 C98.29421875 171.99488281 99.0728125 172.24367188 99.875 172.5 C100.46539062 172.69207031 101.05578125 172.88414062 101.6640625 173.08203125 C115.81009894 175.75628195 131.27402773 172.66881707 145.01953125 169.234375 C145.87232666 169.02973633 146.72512207 168.82509766 147.60375977 168.61425781 C149.24538106 168.21430437 150.88083001 167.78778827 152.50756836 167.33105469 C157.89916625 166.01827726 157.89916625 166.01827726 160.72119141 167.41137695 C163.54174467 169.63158997 164.79581005 171.21152233 165.75 174.6875 C164.60971481 179.65588548 162.05044824 182.26767203 158.7890625 186.09375 C154.32023697 191.7117021 154.09707033 198.60718128 154.875 205.5 C155.50770409 208.03631814 156.17148522 210.54650417 156.875 213.0625 C159.41439189 222.34070609 161.37231511 234.02117217 157.3125 243.125 C156.19140625 244.87109375 156.19140625 244.87109375 154.875 246.5 C154.38902344 247.10972656 153.90304687 247.71945312 153.40234375 248.34765625 C144.67114295 258.06963161 130.72171175 261.94933733 118.046875 262.73828125 C106.07185753 263.03543148 94.66056187 261.47788436 82.87109375 259.47265625 C80.87319371 259.14355656 78.87451535 258.81913872 76.875 258.5 C75.93446777 258.34901855 74.99393555 258.19803711 74.02490234 258.04248047 C69.05372884 257.30140956 69.05372884 257.30140956 64.359375 258.6875 C63.78703125 259.285625 63.2146875 259.88375 62.625 260.5 C61.985625 261.15097656 61.34625 261.80195313 60.6875 262.47265625 C60.089375 263.14167969 59.49125 263.81070312 58.875 264.5 C58.318125 265.07621094 57.76125 265.65242188 57.1875 266.24609375 C49.96513451 274.06430439 46.38250213 283.53022053 46.69140625 294.16015625 C48.04268721 311.38180084 57.00318536 324.67585244 67.875 337.5 C66.1871386 339.1878614 64.06629246 338.66241061 61.75074768 338.6942749 C60.6394751 338.71154633 59.52820251 338.72881775 58.383255 338.74661255 C57.15277939 338.76029877 55.92230377 338.77398499 54.65454102 338.78808594 C52.72259384 338.81480881 52.72259384 338.81480881 50.75161743 338.84207153 C38.80843394 339.00188919 26.86407192 339.08564104 14.9200449 339.15206528 C6.10492264 339.20208233 -2.70831162 339.2875863 -11.52257866 339.42068648 C-17.73255525 339.51125447 -23.94202115 339.55860813 -30.15262848 339.57564378 C-33.85312443 339.58701977 -37.55121356 339.61661212 -41.25097466 339.69359589 C-58.92195057 340.04562025 -72.0078947 338.99386207 -86.125 327.5 C-87.8404018 326.28913606 -89.56091905 325.08536575 -91.29296875 323.8984375 C-92.63671086 322.89582868 -93.97671621 321.88818753 -95.3125 320.875 C-125.83052216 298.37171087 -157.47424381 285.76432094 -195.71801758 291.25634766 C-199.71035729 291.86797578 -203.60036716 292.58303382 -207.50390625 293.625 C-211.63088677 294.62224233 -214.02899945 294.35333345 -218.125 293.5 C-219.26242798 290.41269548 -219.48908847 288.3135032 -218.13012695 285.27709961 C-214.27379899 278.81449728 -209.83909785 273.65495246 -204.4375 268.4375 C-203.63441406 267.65020508 -202.83132812 266.86291016 -202.00390625 266.05175781 C-196.28651529 260.49805023 -190.46051607 255.34184473 -184.125 250.5 C-182.75535527 249.42725447 -181.38697541 248.35289297 -180.01953125 247.27734375 C-164.51389148 235.1080204 -148.73973433 223.43685767 -132.55175781 212.19189453 C-128.87396561 209.62779997 -125.21916622 207.03158204 -121.5625 204.4375 C-115.56258716 200.18767983 -109.51316762 196.01568377 -103.4375 191.875 C-86.07100153 180.10283611 -86.07100153 180.10283611 -70.125 166.5 C-69.25875 165.675 -68.3925 164.85 -67.5 164 C-66.71625 163.175 -65.9325 162.35 -65.125 161.5 C-64.23748047 160.63955078 -64.23748047 160.63955078 -63.33203125 159.76171875 C-52.74568369 148.88870027 -46.28503114 133.66071231 -45.625 118.5625 C-45.86997732 108.83796553 -49.28263257 100.31373845 -56.08203125 93.296875 C-65.12514146 85.34308782 -75.97368286 81.53606528 -87.125 77.5 C-87.125 77.17 -87.125 76.84 -87.125 76.5 C-69.95955458 73.55387391 -50.98898575 73.0324044 -36.125 83.5 C-15.60183349 99.20909041 -11.49770843 123.91283901 -5.87768555 147.67382812 C1.04862347 176.80820308 9.92249859 205.65364169 33.875 225.5 C34.65230469 225.79519531 35.42960938 226.09039062 36.23046875 226.39453125 C38.82062165 227.47726872 40.14951479 228.5004262 42.2109375 230.34765625 C45.72422448 233.46984147 49.34539721 235.76092315 53.5 237.9375 C54.22509766 238.31801514 54.95019531 238.69853027 55.69726562 239.09057617 C64.70991357 243.64356326 74.19658194 246.6996552 83.875 249.5 C84.59623047 249.70995605 85.31746094 249.91991211 86.06054688 250.13623047 C100.33099818 254.16637461 116.04389627 256.72076068 130.875 256.5 C130.23812256 256.25991211 129.60124512 256.01982422 128.94506836 255.77246094 C89.37723979 240.72798208 50.23658357 220.5535863 31.859375 180.27392578 C25.41146525 165.12860498 21.95959479 148.94375389 18.4140625 132.9296875 C11.82913365 103.29422943 2.84952938 76.91362226 -17.125 53.5 C-17.55796387 52.98791992 -17.99092773 52.47583984 -18.43701172 51.94824219 C-25.54228045 43.62372616 -32.84945558 37.33224879 -42.125 31.5 C-45.125 29.5 -45.125 29.5 -46.125 26.5 C-46.89056239 19.15060103 -44.64237842 12.35432811 -40.6171875 6.19140625 C-30.3064877 -6.49315234 -13.71569187 -9.32343691 0 0 Z " fill="#134BBF" transform="translate(275.125,161.5)"/>
<path d="M0 0 C0.84304688 0.35191406 1.68609375 0.70382813 2.5546875 1.06640625 C36.63504893 15.55965604 58.00874952 42.34675259 72.58984375 75.62890625 C73.8047785 78.73028921 74.91434999 81.85122863 76 85 C76.45503906 86.20527344 76.91007812 87.41054687 77.37890625 88.65234375 C82.97118626 103.59462063 87.06487108 119.1123055 90.47265625 134.6875 C91.75246439 140.29091613 93.47025278 145.47947872 95.75 150.75 C96.09998047 151.5649292 96.44996094 152.3798584 96.81054688 153.21948242 C101.54489251 163.88353176 107.83800118 171.70469781 118.57421875 176.64453125 C123.64272904 178.46607298 128.54258419 178.40418528 133.875 178.3125 C135.26912109 178.31733398 135.26912109 178.31733398 136.69140625 178.32226562 C142.27906939 178.27940349 147.38734497 177.67883446 152.81298828 176.32885742 C155.18874256 175.97161909 156.73320488 176.26343677 159 177 C157.44539062 177.61488281 157.44539062 177.61488281 155.859375 178.2421875 C154.48954661 178.7863659 153.11975698 179.33064187 151.75 179.875 C151.06808594 180.14441406 150.38617188 180.41382813 149.68359375 180.69140625 C143.35807207 182.76378811 143.35807207 182.76378811 138.75 187.0625 C136.8163379 194.6360099 138.14066749 200.3239615 141.22265625 207.421875 C142.13173629 210.43691432 142.0365493 212.04057664 141 215 C136.43688262 218.32727309 132.36968401 219.57304767 126.8203125 220.41015625 C126.21960938 220.60480469 125.61890625 220.79945313 125 221 C124.67 221.99 124.34 222.98 124 224 C121.33544922 224.87548828 121.33544922 224.87548828 117.8046875 225.5703125 C115.89429688 225.95509766 115.89429688 225.95509766 113.9453125 226.34765625 C112.58856804 226.60690887 111.23179696 226.86602227 109.875 227.125 C108.54143015 227.39074292 107.20809304 227.65765669 105.875 227.92578125 C88.93880011 231.28235205 72.94945165 233.97472583 57 226 C57 225.34 57 224.68 57 224 C56.40445313 223.78085937 55.80890625 223.56171875 55.1953125 223.3359375 C50.01468379 220.18331291 47.74413591 212.71994506 46.20703125 207.1015625 C45.29201938 202.07931692 44.94087541 197.11273216 44.71899414 192.01611328 C44.23571164 181.32866605 42.37682262 172.99155784 35 165 C35 164.34 35 163.68 35 163 C34.41992188 162.72414063 33.83984375 162.44828125 33.2421875 162.1640625 C31.06484497 161.03366516 29.13660139 159.77607645 27.125 158.375 C23.78587267 156.09932411 20.38228366 154.0942467 16.82397461 152.1796875 C4.08777898 145.25157894 -4.21559464 136.02334969 -8.61508179 122.0458374 C-9.85208791 117.41275553 -10.74578375 112.71169731 -11.625 108 C-14.91000993 90.87862655 -19.08972031 69.78282515 -33 58 C-40.06155468 53.57269299 -46.61887138 51.44125809 -55 52 C-62.48736252 53.77710524 -68.97775168 56.91196331 -73.83203125 63.1015625 C-77.56697321 69.17240461 -79.74058082 75.89042413 -79 83 C-77.73759681 86.78720957 -76.59145623 87.05209944 -73.1875 89 C-51.58137966 102.36057636 -35.27082971 125.70086643 -26 149 C-25.59950439 149.99193359 -25.59950439 149.99193359 -25.19091797 151.00390625 C-20.04568607 164.11980411 -17.10554323 177.79832176 -14 191.5 C-8.18981176 217.11235258 -2.1037416 241.38704245 15 262 C15.68578125 262.84949219 16.3715625 263.69898438 17.078125 264.57421875 C27.00247291 276.2812736 39.69197139 284.61575962 53 292 C53.7719873 292.433125 54.54397461 292.86625 55.33935547 293.3125 C68.11542315 300.42687741 81.14521144 306.11810047 94.88134766 311.12133789 C97 312 97 312 100 314 C87.74822579 313.60998743 75.99645467 312.53560791 64 310 C63.30696777 309.85691406 62.61393555 309.71382813 61.89990234 309.56640625 C46.79709415 306.40234168 32.41450346 302.07490666 18.6875 294.9375 C17.49568115 294.32044189 17.49568115 294.32044189 16.27978516 293.69091797 C11.78633238 291.26184156 8.59623025 288.66851628 5 285 C3.00105876 283.99788528 1.00102511 282.99794714 -1 282 C-3.03750388 280.27146187 -4.89100519 278.58648986 -6.75 276.6875 C-7.2665918 276.16115967 -7.78318359 275.63481934 -8.31542969 275.0925293 C-20.56821469 262.28502183 -28.57751006 247.31792357 -33.86328125 230.4609375 C-34.11727188 229.65335495 -34.37126251 228.8457724 -34.63294983 228.01371765 C-38.20443628 216.38491045 -40.89695317 204.50932548 -43.67456055 192.67114258 C-48.36556857 172.76269709 -53.39496848 152.50801529 -71 140 C-85.61764916 131.07911295 -104.50451383 130.19998296 -120.8359375 134.0859375 C-124.86122741 135.11424081 -128.85821715 136.23449709 -132.85058594 137.38330078 C-143.71007139 140.49905047 -155.46996363 143.85377372 -166.3125 139.0625 C-173.18181848 135.07963782 -178.45874212 129.60013403 -181 122 C-183.21981525 112.65947868 -182.23507187 104.15772246 -177.74609375 95.61328125 C-170.21508762 83.52673463 -158.96101347 77.51915364 -145.3125 74.1875 C-141.42589147 73.36434344 -137.71255099 72.88348397 -133.75 72.6875 C-122.9707868 71.75017711 -113.3564598 61.13010698 -106.734375 53.33203125 C-96.90108494 40.32731748 -92.47166073 28.22562125 -94 12 C-94.92153426 8.65734392 -96.14755555 5.91629809 -98 3 C-98.495 2.01 -98.495 2.01 -99 1 C-90.96324383 -1.89228393 -82.96437698 -4.3944667 -74.625 -6.25 C-73.90135254 -6.41274414 -73.17770508 -6.57548828 -72.43212891 -6.74316406 C-47.74816929 -12.04102006 -23.0220883 -10.06882516 0 0 Z " fill="#186ACF" transform="translate(309,105)"/>
<path d="M0 0 C7.04939416 1.23756031 12.49189083 7.8680077 16.44921875 13.5 C25.9356864 28.79304609 31.33103149 45.96233765 36.98252869 62.93733215 C49.42140981 100.29853438 63.17168851 131.10138036 100 150 C105.61779469 152.77218367 111.29872454 155.40474628 117 158 C117 158.33 117 158.66 117 159 C112.02467183 158.58538932 107.38863967 157.91062437 102.5625 156.625 C95.29348472 154.72430085 87.93105582 153.53798315 80.51171875 152.39624023 C78.68347535 152.10782275 76.85825741 151.80002582 75.03515625 151.48071289 C48.57905221 147.015844 22.58084859 149.02027082 -0.09375 164.05078125 C-2.78489946 165.97148067 -5.40119146 167.95682897 -8 170 C-9.03125 170.763125 -10.0625 171.52625 -11.125 172.3125 C-25.79925123 186.02973484 -34.884704 203.94020462 -43 222 C-46.00501288 221.3851115 -48.18896206 220.42902547 -50.765625 218.77734375 C-51.48266602 218.32504395 -52.19970703 217.87274414 -52.93847656 217.40673828 C-53.7012793 216.92188965 -54.46408203 216.43704102 -55.25 215.9375 C-85.3673043 197.21016772 -113.87421483 190.36826333 -149 197 C-150.46287121 197.36217174 -151.92284943 197.73633681 -153.37890625 198.125 C-157.50588677 199.12224233 -159.90399945 198.85333345 -164 198 C-165.13742798 194.91269548 -165.36408847 192.8135032 -164.00512695 189.77709961 C-160.14879899 183.31449728 -155.71409785 178.15495246 -150.3125 172.9375 C-149.50941406 172.15020508 -148.70632812 171.36291016 -147.87890625 170.55175781 C-142.16151529 164.99805023 -136.33551607 159.84184473 -130 155 C-128.63035527 153.92725447 -127.26197541 152.85289297 -125.89453125 151.77734375 C-110.38889148 139.6080204 -94.61473433 127.93685767 -78.42675781 116.69189453 C-74.74896561 114.12779997 -71.09416622 111.53158204 -67.4375 108.9375 C-61.43758716 104.68767983 -55.38816762 100.51568377 -49.3125 96.375 C-31.94600153 84.60283611 -31.94600153 84.60283611 -16 71 C-15.13375 70.175 -14.2675 69.35 -13.375 68.5 C-12.59125 67.675 -11.8075 66.85 -11 66 C-10.40832031 65.42636719 -9.81664062 64.85273438 -9.20703125 64.26171875 C1.37931631 53.38870027 7.83996886 38.16071231 8.5 23.0625 C8.31807869 14.35900151 5.43606192 6.79109202 0 0 Z " fill="#1258CF" transform="translate(221,257)"/>
<path d="M0 0 C20.64676352 17.56390825 31.60934301 44.24812298 41.19921875 68.890625 C41.5461377 69.77266602 41.89305664 70.65470703 42.25048828 71.56347656 C42.5648584 72.39202148 42.87922852 73.22056641 43.203125 74.07421875 C43.48099854 74.8005249 43.75887207 75.52683105 44.04516602 76.27514648 C44.71560174 78.74355633 44.73919982 80.90673579 44.63671875 83.453125 C41.05468811 79.25608213 38.36112635 74.74956395 35.57421875 70.015625 C27.70656831 56.92849891 18.26333495 45.39228873 7.63671875 34.453125 C6.88390625 33.67453125 6.13109375 32.8959375 5.35546875 32.09375 C-8.96868605 18.26014845 -27.39266016 8.64302939 -47.49633789 8.85375977 C-56.75246354 9.26945687 -64.41441467 12.27126676 -71.36328125 18.453125 C-80.37621193 30.15933144 -82.57362477 43.11196166 -81.36328125 57.453125 C-80.45868514 62.53889621 -80.45868514 62.53889621 -77.18359375 66.28125 C-76.29414063 66.75046875 -75.4046875 67.2196875 -74.48828125 67.703125 C-52.78918519 80.45063574 -36.50694949 104.47356931 -27.36328125 127.453125 C-26.96278564 128.44505859 -26.96278564 128.44505859 -26.55419922 129.45703125 C-21.40896732 142.57292911 -18.46882448 156.25144676 -15.36328125 169.953125 C-9.55309301 195.56547758 -3.46702285 219.84016745 13.63671875 240.453125 C14.3225 241.30261719 15.00828125 242.15210938 15.71484375 243.02734375 C25.63919166 254.7343986 38.32869014 263.06888462 51.63671875 270.453125 C52.40870605 270.88625 53.18069336 271.319375 53.97607422 271.765625 C66.7521419 278.88000241 79.78193019 284.57122547 93.51806641 289.57446289 C95.63671875 290.453125 95.63671875 290.453125 98.63671875 292.453125 C86.38494454 292.06311243 74.63317342 290.98873291 62.63671875 288.453125 C61.94368652 288.31003906 61.2506543 288.16695313 60.53662109 288.01953125 C45.4338129 284.85546668 31.05122221 280.52803166 17.32421875 273.390625 C16.1323999 272.77356689 16.1323999 272.77356689 14.91650391 272.14404297 C10.42305113 269.71496656 7.232949 267.12164128 3.63671875 263.453125 C1.63777751 262.45101028 -0.36225614 261.45107214 -2.36328125 260.453125 C-4.40078513 258.72458687 -6.25428644 257.03961486 -8.11328125 255.140625 C-8.62987305 254.61428467 -9.14646484 254.08794434 -9.67871094 253.5456543 C-21.93149594 240.73814683 -29.94079131 225.77104857 -35.2265625 208.9140625 C-35.48055313 208.10647995 -35.73454376 207.2988974 -35.99623108 206.46684265 C-39.56771753 194.83803545 -42.26023442 182.96245048 -45.0378418 171.12426758 C-49.72884982 151.21582209 -54.75824973 130.96114029 -72.36328125 118.453125 C-86.98093041 109.53223795 -105.86779508 108.65310796 -122.19921875 112.5390625 C-126.22450866 113.56736581 -130.2214984 114.68762209 -134.21386719 115.83642578 C-145.07335264 118.95217547 -156.83324488 122.30689872 -167.67578125 117.515625 C-174.54509973 113.53276282 -179.82202337 108.05325903 -182.36328125 100.453125 C-184.5830965 91.11260368 -183.59835312 82.61084746 -179.109375 74.06640625 C-171.57836887 61.97985963 -160.32429472 55.97227864 -146.67578125 52.640625 C-142.78917272 51.81746844 -139.07583224 51.33660897 -135.11328125 51.140625 C-124.33406805 50.20330211 -114.71974105 39.58323198 -108.09765625 31.78515625 C-101.14016717 22.58374416 -95.54697971 12.88500101 -94.80078125 1.265625 C-94.67509766 -0.64283203 -94.67509766 -0.64283203 -94.546875 -2.58984375 C-94.48628906 -3.56566406 -94.42570312 -4.54148437 -94.36328125 -5.546875 C-94.03328125 -5.546875 -93.70328125 -5.546875 -93.36328125 -5.546875 C-92.86828125 -1.586875 -92.86828125 -1.586875 -92.36328125 2.453125 C-91.41710937 1.94523438 -90.4709375 1.43734375 -89.49609375 0.9140625 C-61.1822893 -13.95131903 -27.29431961 -21.62669124 0 0 Z " fill="#1D9DF8" transform="translate(310.36328125,126.546875)"/>
<path d="M0 0 C16.51453337 15.54309023 20.13159803 38.94849436 25.12231445 60.04882812 C32.04862347 89.18320308 40.92249859 118.02864169 64.875 137.875 C65.65230469 138.17019531 66.42960938 138.46539062 67.23046875 138.76953125 C69.82062165 139.85226872 71.14951479 140.8754262 73.2109375 142.72265625 C76.72422448 145.84484147 80.34539721 148.13592315 84.5 150.3125 C85.22509766 150.69301514 85.95019531 151.07353027 86.69726562 151.46557617 C95.7137819 156.02051745 105.19836347 159.05738546 114.875 161.875 C115.55900879 162.07963867 116.24301758 162.28427734 116.94775391 162.49511719 C132.13132019 166.93059181 148.20809439 168.09137864 163.875 169.875 C163.875 170.865 163.875 171.855 163.875 172.875 C147.15527987 177.08310934 130.60236462 174.69580684 113.87109375 171.84765625 C111.87319371 171.51855656 109.87451535 171.19413872 107.875 170.875 C106.93446777 170.72401855 105.99393555 170.57303711 105.02490234 170.41748047 C100.05372884 169.67640956 100.05372884 169.67640956 95.359375 171.0625 C94.78703125 171.660625 94.2146875 172.25875 93.625 172.875 C92.985625 173.52597656 92.34625 174.17695313 91.6875 174.84765625 C91.089375 175.51667969 90.49125 176.18570313 89.875 176.875 C89.318125 177.45121094 88.76125 178.02742187 88.1875 178.62109375 C80.96513451 186.43930439 77.38250213 195.90522053 77.69140625 206.53515625 C79.04268721 223.75680084 88.00318536 237.05085244 98.875 249.875 C97.1871386 251.5628614 95.06629246 251.03741061 92.75074768 251.0692749 C91.6394751 251.08654633 90.52820251 251.10381775 89.383255 251.12161255 C88.15277939 251.13529877 86.92230377 251.14898499 85.65454102 251.16308594 C83.72259384 251.18980881 83.72259384 251.18980881 81.75161743 251.21707153 C69.80843394 251.37688919 57.86407192 251.46064104 45.9200449 251.52706528 C37.10492264 251.57708233 28.29168838 251.6625863 19.47742134 251.79568648 C13.26744475 251.88625447 7.05797885 251.93360813 0.84737152 251.95064378 C-2.85312443 251.96201977 -6.55121356 251.99161212 -10.25097466 252.06859589 C-27.93848184 252.42074586 -41.00579233 251.36493344 -55.125 239.875 C-56.96329904 238.51319588 -58.81715798 237.17511204 -60.67327023 235.83776474 C-62.86671852 234.23758805 -64.99899729 232.56329627 -67.125 230.875 C-62.30930066 217.16877881 -55.13739895 204.2407333 -46.125 192.875 C-45.07892578 191.49054688 -45.07892578 191.49054688 -44.01171875 190.078125 C-29.8992251 171.92990937 -9.65539049 160.74144413 12.875 156.875 C17.71844001 156.50562453 22.51990676 156.49814298 27.375 156.5625 C28.59058594 156.55927734 29.80617188 156.55605469 31.05859375 156.55273438 C39.17449383 156.60037306 46.89761634 157.42167186 54.875 158.875 C56.55118408 159.17216919 56.55118408 159.17216919 58.26123047 159.4753418 C61.69795073 160.09352191 65.13050566 160.73113523 68.5625 161.375 C69.70783203 161.58769531 70.85316406 161.80039062 72.03320312 162.01953125 C78.65761255 163.25426966 85.27160163 164.53238088 91.875 165.875 C91.2672876 165.60461914 90.6595752 165.33423828 90.03344727 165.05566406 C57.06583891 150.23778452 34.87476821 130.53590025 21.6640625 96.328125 C18.48625468 87.73377852 15.59674994 79.04003564 12.6930542 70.35031128 C11.66009702 67.26503885 10.61945706 64.18237304 9.57904053 61.09960938 C8.83803829 58.88869802 8.11196728 56.67330979 7.38720703 54.45703125 C1.01851217 35.29296345 -7.18983675 16.60283335 -25.125 5.875 C-26.75641057 4.61240667 -28.38104266 3.34102239 -30 2.0625 C-36.58020928 -2.79219245 -43.48734496 -5.35568859 -51.125 -8.125 C-52.79440099 -8.78478978 -54.46228627 -9.44853472 -56.125 -10.125 C-56.125 -10.455 -56.125 -10.785 -56.125 -11.125 C-35.93614881 -14.59003687 -16.21008332 -13.67115461 0 0 Z " fill="#0A16A5" transform="translate(244.125,249.125)"/>
<path d="M0 0 C3.44141855 2.12342847 5.74196809 4.11153775 7 8 C7.02742884 9.99981191 7.02996939 12.00022455 7 14 C8.07157349 14.13607666 8.07157349 14.13607666 9.16479492 14.27490234 C19.39398451 15.70074583 29.30111053 18.13014276 39.3125 20.625 C41.03567993 21.0499959 42.75898651 21.47447861 44.48242188 21.8984375 C48.65642891 22.92639233 52.82867005 23.96123765 57 25 C57.40629639 24.51136475 57.81259277 24.02272949 58.23120117 23.51928711 C58.76720947 22.8825708 59.30321777 22.24585449 59.85546875 21.58984375 C60.38551514 20.9568335 60.91556152 20.32382324 61.46166992 19.67163086 C64.61778798 16.24202598 67.91666167 15.87394275 72.375 15.625 C77.31921198 15.74839963 80.00640586 17.10268661 84 20 C88.33181623 24.67380172 89.38062049 28.43525235 89.26953125 34.65625 C88.72868946 39.35922209 86.7688955 42.42276812 83.26953125 45.54296875 C79.08165613 48.52714324 75.39271757 49.78014575 70.2421875 49.50390625 C66.92027245 48.75734346 64.46453694 47.16883223 61.7265625 45.19140625 C59.89788794 43.81122382 59.89788794 43.81122382 57 43 C54.9115771 43.70535717 54.9115771 43.70535717 52.703125 44.921875 C51.4052002 45.58678955 51.4052002 45.58678955 50.08105469 46.26513672 C49.14680664 46.7551416 48.21255859 47.24514648 47.25 47.75 C45.26139094 48.77013062 43.27177357 49.78829761 41.28125 50.8046875 C40.25 51.33288086 39.21875 51.86107422 38.15625 52.40527344 C32.13686112 55.44662927 26.03595065 58.31717366 19.94238281 61.20605469 C18.16621277 62.04962337 16.39250954 62.89841 14.62158203 63.75292969 C12.8121307 64.61367446 10.98900697 65.44605186 9.15576172 66.25488281 C8.25100098 66.66834961 7.34624023 67.08181641 6.4140625 67.5078125 C5.5988916 67.86762207 4.7837207 68.22743164 3.94384766 68.59814453 C1.36937539 70.45479107 1.15047876 71.92902799 0.625 75 C0.5321875 75.86625 0.439375 76.7325 0.34375 77.625 C-0.14290449 80.98734013 -1.56156921 82.70500632 -4 85 C-6.68408288 86.70805274 -7.76169533 87 -11 87 C-11.04898438 87.94617188 -11.09796875 88.89234375 -11.1484375 89.8671875 C-11.5661047 97.4044888 -12.17376161 104.87799794 -13.0625 112.375 C-13.31035085 114.59741947 -13.55252557 116.8202943 -13.7890625 119.04394531 C-13.97268926 120.74674347 -14.1724412 122.44778754 -14.375 124.1484375 C-14.55463206 126.64083235 -14.64883552 128.58729311 -14 131 C-12.37291448 132.79276786 -10.80390608 134.01824534 -8.7265625 135.2578125 C-7 137 -7 137 -6.71484375 140.85546875 C-6.36168901 143.06992322 -6.36168901 143.06992322 -5 145 C-0.22657401 147.49851421 4.88755775 148.79032216 10.0625 150.1875 C11.53777397 150.61225346 13.01214419 151.04015841 14.4855957 151.47119141 C18.0344133 152.50262952 21.59190063 153.49887234 25.15368652 154.48443604 C28.33744478 155.37346764 31.5026933 156.32293137 34.66894531 157.27197266 C36.60650056 157.85080205 38.54926112 158.41211999 40.4921875 158.97265625 C45.14186798 160.33442236 49.75424061 161.80771175 54.36328125 163.30078125 C57.18975119 164.17088366 57.18975119 164.17088366 61 164 C62.72767886 162.34775533 62.72767886 162.34775533 64.25 160.1875 C68.67832098 154.84134326 72.74096775 153.40737903 79.5 152.5625 C86.69085488 153.46135686 91.25879545 156.67002792 95.7734375 162.21875 C99.18740119 167.1766081 99.60466892 171.08009624 99 177 C97.69491841 183.53727232 94.46180792 187.31181143 89 191 C84.07657937 194.02660805 78.59078534 193.64107672 73 193 C70.48022628 191.93072333 69.06903584 190.83914297 67 189 C63.96273042 190.36610268 61.79084974 191.93073807 59.390625 194.23046875 C58.71773437 194.86919922 58.04484375 195.50792969 57.3515625 196.16601562 C56.65804687 196.83310547 55.96453125 197.50019531 55.25 198.1875 C50.52879449 202.69777713 45.76913495 207.12635359 40.83496094 211.40356445 C37.39196141 214.39901069 34.04266912 217.49593078 30.69921875 220.6015625 C28 223 28 223 25.51953125 224.7734375 C23.2664992 226.40838111 21.59326443 227.71165704 20 230 C19.62170045 233.14116142 19.74808377 236.0341114 19.9609375 239.1875 C20 242 20 242 18.375 245.5625 C15.13327971 248.88952871 12.56520252 250.71913841 7.859375 251.234375 C3.02263395 251.135666 0.31902346 249.91485611 -3.0625 246.4375 C-5.23869034 243.60845256 -6.48016703 241.46186033 -6.6875 237.875 C-5.76849717 232.69516584 -3.67139916 229.67139916 0 226 C-0.32899761 218.45836239 -2.73431832 211.00341952 -4.87109375 203.8125 C-6.09455113 199.68068545 -7.2378445 195.53114038 -8.375 191.375 C-9.73292763 186.4218945 -11.14231721 181.49114589 -12.65234375 176.58203125 C-12.92836426 175.68242676 -13.20438477 174.78282227 -13.48876953 173.85595703 C-14.02646432 172.1141064 -14.57014499 170.37408909 -15.12060547 168.63623047 C-16.34866845 164.6581461 -17.36793064 161.21836753 -17 157 C-18.216875 156.938125 -19.43375 156.87625 -20.6875 156.8125 C-24.10216464 156.38340055 -25.02249371 155.98239623 -27.875 153.75 C-30 151 -30 151 -32 146 C-39.92 146 -47.84 146 -56 146 C-56.99 147.98 -56.99 147.98 -58 150 C-61.27057143 152.18038095 -62.20519469 152.63246755 -66 152 C-69.62336332 149.3428669 -70.85568506 147.91399461 -71.5625 143.4375 C-71 140 -71 140 -69.4375 137.5625 C-66.08147594 135.41120253 -63.91578329 135.51052709 -60 136 C-57.5625 137.3125 -57.5625 137.3125 -56 139 C-56 139.99 -56 140.98 -56 142 C-55.10539062 141.9278125 -54.21078125 141.855625 -53.2890625 141.78125 C-46.17477852 141.23516424 -39.13517147 140.85203561 -32 141 C-31.79375 140.278125 -31.5875 139.55625 -31.375 138.8125 C-29.49789511 134.97296727 -27.50687652 133.45481356 -24 131 C-22.68 131 -21.36 131 -20 131 C-19.95101562 130.195625 -19.90203125 129.39125 -19.8515625 128.5625 C-19.31849251 120.18043391 -18.68488042 111.80854311 -18 103.4375 C-17.9170166 102.40302734 -17.8340332 101.36855469 -17.74853516 100.30273438 C-17.34910373 95.49072361 -16.90919719 90.74893176 -16 86 C-16.763125 85.731875 -17.52625 85.46375 -18.3125 85.1875 C-20.91752101 84.0364442 -22.24363005 83.19546244 -24 81 C-24.33 80.01 -24.66 79.02 -25 78 C-35.23 77.67 -45.46 77.34 -56 77 C-56.66 78.32 -57.32 79.64 -58 81 C-61.09173752 82.54586876 -63.59429552 82.29359521 -67 82 C-69.4375 80.4375 -69.4375 80.4375 -71 78 C-71.56416593 74.0508385 -71.65243688 71.9535616 -69.375 68.625 C-66.41546447 66.60005464 -64.5948199 66 -61 66 C-58.125 67.8125 -58.125 67.8125 -56 70 C-56 70.66 -56 71.32 -56 72 C-45.77 72 -35.54 72 -25 72 C-24.67 70.35 -24.34 68.7 -24 67 C-21.49718923 64.16787202 -19.14541163 62.09694109 -16 60 C-15.01 60 -14.02 60 -13 60 C-12.95101562 58.89785156 -12.90203125 57.79570312 -12.8515625 56.66015625 C-12.34097696 46.03573191 -11.37503363 35.54637441 -10 25 C-10.77730469 24.73445313 -11.55460937 24.46890625 -12.35546875 24.1953125 C-15.50578561 22.77138789 -16.71759325 21.0550208 -18.26171875 17.9921875 C-19.54278372 14.53534552 -19.94431274 11.59402611 -19 8 C-14.25882758 0.20000666 -8.79554299 -2.18317942 0 0 Z " fill="#1D54B9" transform="translate(111,111)"/>
<path d="M0 0 C1.22396484 0.65742188 1.22396484 0.65742188 2.47265625 1.328125 C11.60025386 6.21828543 20.7706659 11.02274844 29.96508789 15.78613281 C35.04097277 18.42352134 40.05884587 21.11766009 45 24 C42.50767918 25.99830723 40.01164231 27.99084987 37.5 29.96484375 C33.08771924 33.44640903 28.83206303 36.87316289 25 41 C24.36964844 41.62519531 23.73929688 42.25039063 23.08984375 42.89453125 C11.28558924 55.11516158 3.80092529 70.60535537 -3 86 C-6.00501288 85.3851115 -8.18896206 84.42902547 -10.765625 82.77734375 C-11.48266602 82.32504395 -12.19970703 81.87274414 -12.93847656 81.40673828 C-13.7012793 80.92188965 -14.46408203 80.43704102 -15.25 79.9375 C-45.3673043 61.21016772 -73.87421483 54.36826333 -109 61 C-110.46287121 61.36217174 -111.92284943 61.73633681 -113.37890625 62.125 C-117.50588677 63.12224233 -119.90399945 62.85333345 -124 62 C-125.13742798 58.91269548 -125.36408847 56.8135032 -124.00512695 53.77709961 C-120.14874398 47.3144051 -115.71391591 42.15524843 -110.3125 36.9375 C-109.51303955 36.15310547 -108.7135791 35.36871094 -107.88989258 34.56054688 C-102.17364792 29.00448429 -96.33206792 23.84653879 -90 19 C-88.85997964 18.07276548 -87.7220824 17.14291659 -86.5859375 16.2109375 C-85.41200702 15.26494371 -84.23753578 14.31962053 -83.0625 13.375 C-82.51811279 12.92382812 -81.97372559 12.47265625 -81.4128418 12.0078125 C-77.52365808 8.94062909 -77.52365808 8.94062909 -75.07275391 9.21850586 C-72.72028063 10.1054631 -71.00768962 11.23294348 -68.98828125 12.73046875 C-67.85036133 13.56481445 -67.85036133 13.56481445 -66.68945312 14.41601562 C-65.90505859 15.00060547 -65.12066406 15.58519531 -64.3125 16.1875 C-61.2188904 18.47317449 -58.11427879 20.74257695 -55 23 C-54.19876709 23.59449951 -53.39753418 24.18899902 -52.57202148 24.80151367 C-51.39941772 25.63839722 -51.39941772 25.63839722 -50.203125 26.4921875 C-49.15560059 27.25378174 -49.15560059 27.25378174 -48.08691406 28.03076172 C-45.40389861 29.27685102 -44.18369701 28.90622022 -41.4375 27.9375 C-39.59951316 27.00705495 -37.79026266 26.01925621 -36 25 C-34.73295189 24.32719813 -33.46463137 23.65678919 -32.1953125 22.98828125 C-20.34509373 16.6372206 -9.86585626 9.15941223 0 0 Z " fill="#0B32C2" transform="translate(181,393)"/>
<path d="M0 0 C0.81304092 -0.00988449 1.62608185 -0.01976898 2.46376038 -0.029953 C55.92675593 -0.54539307 97.83534915 14.73948315 136.41015625 51.98828125 C143.98826617 59.63799536 150.26070726 68.42407103 156.41015625 77.23828125 C156.08015625 77.89828125 155.75015625 78.55828125 155.41015625 79.23828125 C154.54390625 78.24828125 153.67765625 77.25828125 152.78515625 76.23828125 C138.18893151 61.73034013 116.82331887 58.51966194 97.22265625 56.48828125 C74.89939447 53.5672587 57.02135576 43.6535342 39.359375 30.34838867 C25.6292417 20.05782258 13.86037187 13.58887699 -3.73828125 15.59765625 C-20.99822954 18.57489675 -35.35486993 28.12899786 -49.5546875 37.8515625 C-62.02318954 46.34212049 -74.23004061 53.58760923 -89.58984375 54.23828125 C-90.23099121 54.2655127 -90.87213867 54.29274414 -91.53271484 54.32080078 C-102.60137942 54.72398925 -112.80025086 53.70783385 -123.58984375 51.23828125 C-119.5325407 46.0618864 -115.25095798 42.14363452 -109.83984375 38.42578125 C-109.1039502 37.91442627 -108.36805664 37.40307129 -107.60986328 36.8762207 C-99.58886214 31.40365564 -91.20443339 26.70196649 -82.58984375 22.23828125 C-81.42839844 21.6246875 -80.26695312 21.01109375 -79.0703125 20.37890625 C-59.1927765 10.47421402 -37.42828622 4.76448847 -15.58984375 1.23828125 C-13.96212036 0.97108276 -13.96212036 0.97108276 -12.30151367 0.69848633 C-8.1773189 0.18713284 -4.15078424 0.04130038 0 0 Z " fill="#74C5EF" transform="translate(273.58984375,4.76171875)"/>
<path d="M0 0 C3.44141855 2.12342847 5.74196809 4.11153775 7 8 C7.02742884 9.99981191 7.02996939 12.00022455 7 14 C8.07157349 14.13607666 8.07157349 14.13607666 9.16479492 14.27490234 C19.39398451 15.70074583 29.30111053 18.13014276 39.3125 20.625 C41.03567993 21.0499959 42.75898651 21.47447861 44.48242188 21.8984375 C48.65642891 22.92639233 52.82867005 23.96123765 57 25 C57.40629639 24.51136475 57.81259277 24.02272949 58.23120117 23.51928711 C58.76720947 22.8825708 59.30321777 22.24585449 59.85546875 21.58984375 C60.38551514 20.9568335 60.91556152 20.32382324 61.46166992 19.67163086 C64.61778798 16.24202598 67.91666167 15.87394275 72.375 15.625 C77.31921198 15.74839963 80.00640586 17.10268661 84 20 C88.33181623 24.67380172 89.38062049 28.43525235 89.26953125 34.65625 C88.72868946 39.35922209 86.7688955 42.42276812 83.26953125 45.54296875 C79.08165613 48.52714324 75.39271757 49.78014575 70.2421875 49.50390625 C66.92027245 48.75734346 64.46453694 47.16883223 61.7265625 45.19140625 C59.89788794 43.81122382 59.89788794 43.81122382 57 43 C54.9115771 43.70535717 54.9115771 43.70535717 52.703125 44.921875 C51.4052002 45.58678955 51.4052002 45.58678955 50.08105469 46.26513672 C49.14680664 46.7551416 48.21255859 47.24514648 47.25 47.75 C45.26139094 48.77013062 43.27177357 49.78829761 41.28125 50.8046875 C40.25 51.33288086 39.21875 51.86107422 38.15625 52.40527344 C32.13686112 55.44662927 26.03595065 58.31717366 19.94238281 61.20605469 C18.16621277 62.04962337 16.39250954 62.89841 14.62158203 63.75292969 C12.8121307 64.61367446 10.98900697 65.44605186 9.15576172 66.25488281 C8.25100098 66.66834961 7.34624023 67.08181641 6.4140625 67.5078125 C5.5988916 67.86762207 4.7837207 68.22743164 3.94384766 68.59814453 C1.36937539 70.45479107 1.15047876 71.92902799 0.625 75 C0.5321875 75.86625 0.439375 76.7325 0.34375 77.625 C-0.14290449 80.98734013 -1.56156921 82.70500632 -4 85 C-6.68408288 86.70805274 -7.76169533 87 -11 87 C-11.09087891 88.55847656 -11.09087891 88.55847656 -11.18359375 90.1484375 C-11.63884613 97.78421984 -12.14095871 105.39657074 -13 113 C-13.33 113 -13.66 113 -14 113 C-14.66 110.69 -15.32 108.38 -16 106 C-16.66 107.32 -17.32 108.64 -18 110 C-17.8583467 107.12473931 -17.71181468 104.24986464 -17.5625 101.375 C-17.52318359 100.56675781 -17.48386719 99.75851563 -17.44335938 98.92578125 C-17.21203918 94.54849135 -16.83079083 90.31452719 -16 86 C-16.763125 85.731875 -17.52625 85.46375 -18.3125 85.1875 C-20.91752101 84.0364442 -22.24363005 83.19546244 -24 81 C-24.33 80.01 -24.66 79.02 -25 78 C-35.23 77.67 -45.46 77.34 -56 77 C-56.66 78.32 -57.32 79.64 -58 81 C-61.09173752 82.54586876 -63.59429552 82.29359521 -67 82 C-69.4375 80.4375 -69.4375 80.4375 -71 78 C-71.56416593 74.0508385 -71.65243688 71.9535616 -69.375 68.625 C-66.41546447 66.60005464 -64.5948199 66 -61 66 C-58.125 67.8125 -58.125 67.8125 -56 70 C-56 70.66 -56 71.32 -56 72 C-45.77 72 -35.54 72 -25 72 C-24.67 70.35 -24.34 68.7 -24 67 C-21.49718923 64.16787202 -19.14541163 62.09694109 -16 60 C-15.01 60 -14.02 60 -13 60 C-12.95101562 58.89785156 -12.90203125 57.79570312 -12.8515625 56.66015625 C-12.34097696 46.03573191 -11.37503363 35.54637441 -10 25 C-10.77730469 24.73445313 -11.55460937 24.46890625 -12.35546875 24.1953125 C-15.50578561 22.77138789 -16.71759325 21.0550208 -18.26171875 17.9921875 C-19.54278372 14.53534552 -19.94431274 11.59402611 -19 8 C-14.25882758 0.20000666 -8.79554299 -2.18317942 0 0 Z " fill="#2474C9" transform="translate(111,111)"/>
<path d="M0 0 C30.62861158 27.42980097 40.84117801 71.06420475 51.13156128 109.209198 C60.43346487 150.62206395 60.43346487 150.62206395 86.08544922 182.12841797 C96.37963286 186.68161458 107.57232539 184.30290625 118.33544922 182.56591797 C111.35006124 188.32523323 102.26489897 189.15940234 93.47216797 188.90966797 C82.67346532 187.7262485 74.3127084 181.30447024 67.39794922 173.25341797 C52.29415305 153.25432028 44.38714094 128.709313 36.21862793 105.30722046 C17.02420784 46.12191944 17.02420784 46.12191944 -25.91455078 4.25341797 C-45.32917669 -4.09965086 -65.20764633 -2.72084096 -84.60791016 4.68994141 C-92.07968224 7.69192298 -99.39448013 11.10864997 -106.66455078 14.56591797 C-106.81150391 13.31488281 -106.81150391 13.31488281 -106.96142578 12.03857422 C-107.90832818 4.9123174 -109.30155613 -1.07205318 -112.66455078 -7.43408203 C-112.99455078 -8.09408203 -113.32455078 -8.75408203 -113.66455078 -9.43408203 C-105.62779461 -12.32636596 -97.62892776 -14.82854873 -89.28955078 -16.68408203 C-88.56590332 -16.84682617 -87.84225586 -17.00957031 -87.09667969 -17.17724609 C-56.93021341 -23.65179866 -23.98292234 -20.66231825 0 0 Z " fill="#0C1298" transform="translate(323.66455078125,115.43408203125)"/>
<path d="M0 0 C0.33 0 0.66 0 1 0 C1.27490586 6.96890985 0.63198812 13.18083345 -1.0625 19.9375 C-1.28510498 20.84137451 -1.50770996 21.74524902 -1.73706055 22.67651367 C-12.00450202 62.82560548 -35.73574994 98.96984521 -71.4375 120.6875 C-73.33042843 121.7949308 -75.23242302 122.88247779 -77.14501953 123.95556641 C-78.36659915 124.64336815 -79.58142352 125.34333035 -80.78857422 126.05615234 C-82.46136323 127.03558652 -84.16788398 127.95670305 -85.875 128.875 C-86.84179688 129.40867187 -87.80859375 129.94234375 -88.8046875 130.4921875 C-94.59028035 131.41165825 -98.6622323 127.64988812 -103.23193359 124.42480469 C-105.43532675 122.79866615 -107.59673562 121.12935058 -109.75 119.4375 C-110.84248047 118.59155273 -110.84248047 118.59155273 -111.95703125 117.72851562 C-115.6645467 114.85199501 -119.34483099 111.94284277 -123 109 C-110.64018795 99.60097894 -98.12486765 90.48702595 -85.36230469 81.64355469 C-81.70403776 79.09834458 -78.07199595 76.51647633 -74.4375 73.9375 C-68.43764378 69.68760184 -62.38816588 65.51568258 -56.3125 61.375 C-38.94600153 49.60283611 -38.94600153 49.60283611 -23 36 C-22.13375 35.175 -21.2675 34.35 -20.375 33.5 C-19.59125 32.675 -18.8075 31.85 -18 31 C-17.40832031 30.42636719 -16.81664062 29.85273438 -16.20703125 29.26171875 C-8.35554607 21.19762081 -3.29572195 10.7027738 0 0 Z " fill="#295BCF" transform="translate(228,292)"/>
<path d="M0 0 C20.64676352 17.56390825 31.60934301 44.24812298 41.19921875 68.890625 C41.5461377 69.77266602 41.89305664 70.65470703 42.25048828 71.56347656 C42.5648584 72.39202148 42.87922852 73.22056641 43.203125 74.07421875 C43.48099854 74.8005249 43.75887207 75.52683105 44.04516602 76.27514648 C44.71560174 78.74355633 44.73919982 80.90673579 44.63671875 83.453125 C41.05468811 79.25608213 38.36112635 74.74956395 35.57421875 70.015625 C27.70656831 56.92849891 18.26333495 45.39228873 7.63671875 34.453125 C6.88390625 33.67453125 6.13109375 32.8959375 5.35546875 32.09375 C-8.96868605 18.26014845 -27.39266016 8.64302939 -47.49633789 8.85375977 C-56.75246354 9.26945687 -64.41441467 12.27126676 -71.36328125 18.453125 C-80.7734128 30.67522527 -82.88770435 44.56703352 -81.11865234 59.52099609 C-80.88575537 61.16782173 -80.62730873 62.81100285 -80.36328125 64.453125 C-81.33265625 63.99421875 -82.30203125 63.5353125 -83.30078125 63.0625 C-98.36141629 56.09873567 -112.89714943 53.00191958 -129.36328125 51.453125 C-126.25380523 48.24975717 -123.10957368 45.39377905 -119.55078125 42.703125 C-109.25439522 34.5117779 -98.04379979 21.78639393 -95.36328125 8.453125 C-94.85703696 3.79061512 -94.5541174 -0.8615186 -94.36328125 -5.546875 C-94.03328125 -5.546875 -93.70328125 -5.546875 -93.36328125 -5.546875 C-92.86828125 -1.586875 -92.86828125 -1.586875 -92.36328125 2.453125 C-91.41710937 1.94523438 -90.4709375 1.43734375 -89.49609375 0.9140625 C-61.1822893 -13.95131903 -27.29431961 -21.62669124 0 0 Z " fill="#1D89DF" transform="translate(310.36328125,126.546875)"/>
<path d="M0 0 C26.72969297 8.16083546 46.60785013 32.31767388 59.42431641 55.94604492 C63.91241915 64.42751677 67.86887958 72.91863651 71 82 C71.45503906 83.20527344 71.91007812 84.41054687 72.37890625 85.65234375 C77.97118626 100.59462063 82.06487108 116.1123055 85.47265625 131.6875 C86.75246439 137.29091613 88.47025278 142.47947872 90.75 147.75 C91.09998047 148.5649292 91.44996094 149.3798584 91.81054688 150.21948242 C96.54489251 160.88353176 102.83800118 168.70469781 113.57421875 173.64453125 C118.64272904 175.46607298 123.54258419 175.40418528 128.875 175.3125 C130.26912109 175.31733398 130.26912109 175.31733398 131.69140625 175.32226562 C137.27906939 175.27940349 142.38734497 174.67883446 147.81298828 173.32885742 C150.18874256 172.97161909 151.73320488 173.26343677 154 174 C152.96359375 174.40992188 151.9271875 174.81984375 150.859375 175.2421875 C149.48954661 175.7863659 148.11975698 176.33064187 146.75 176.875 C146.06808594 177.14441406 145.38617188 177.41382813 144.68359375 177.69140625 C138.15405177 179.77938512 138.15405177 179.77938512 133.8125 184.4375 C133.544375 185.283125 133.27625 186.12875 133 187 C132.67 187.99 132.34 188.98 132 190 C104.44205795 195.04328351 104.44205795 195.04328351 95 190 C80.08063308 179.32691444 73.87971824 162.41716021 68.3125 145.625 C68.10068085 144.9908316 67.88886169 144.35666321 67.67062378 143.70327759 C64.04480617 132.80433745 60.98154636 121.7936521 58.0625 110.6875 C47.79605053 71.70877057 36.57544353 31.71798023 4.875 4.62109375 C3.16856924 3.14574216 1.57210034 1.61631567 0 0 Z " fill="#1657C2" transform="translate(314,108)"/>
<path d="M0 0 C16.51453337 15.54309023 20.13159803 38.94849436 25.12231445 60.04882812 C32.04862347 89.18320308 40.92249859 118.02864169 64.875 137.875 C65.65230469 138.17019531 66.42960937 138.46539062 67.23046875 138.76953125 C69.82062165 139.85226872 71.14951479 140.8754262 73.2109375 142.72265625 C76.72422448 145.84484147 80.34539721 148.13592315 84.5 150.3125 C85.22509766 150.69301514 85.95019531 151.07353027 86.69726562 151.46557617 C95.7137819 156.02051745 105.19836347 159.05738546 114.875 161.875 C115.55900879 162.07963867 116.24301758 162.28427734 116.94775391 162.49511719 C132.13132019 166.93059181 148.20809439 168.09137864 163.875 169.875 C163.875 170.865 163.875 171.855 163.875 172.875 C141.06108699 178.61692867 116.26675489 173.24902117 93.875 167.875 C93.875 167.215 93.875 166.555 93.875 165.875 C93.33190186 165.71136963 92.78880371 165.54773926 92.22924805 165.37915039 C86.39649673 163.53982577 81.08082122 161.1838975 75.6875 158.3125 C74.86523926 157.87558838 74.04297852 157.43867676 73.19580078 156.98852539 C38.0940813 137.93671749 24.82407241 106.65411649 12.6930542 70.35031128 C11.66009702 67.26503885 10.61945706 64.18237304 9.57904053 61.09960938 C8.83803829 58.88869802 8.11196728 56.67330979 7.38720703 54.45703125 C1.01851217 35.29296345 -7.18983675 16.60283335 -25.125 5.875 C-26.75641057 4.61240667 -28.38104266 3.34102239 -30 2.0625 C-36.58020928 -2.79219245 -43.48734496 -5.35568859 -51.125 -8.125 C-52.79440099 -8.78478978 -54.46228627 -9.44853472 -56.125 -10.125 C-56.125 -10.455 -56.125 -10.785 -56.125 -11.125 C-35.93614881 -14.59003687 -16.21008332 -13.67115461 0 0 Z " fill="#0E1FA3" transform="translate(244.125,249.125)"/>
<path d="M0 0 C7.15011689 1.62833208 14.15169108 3.64418109 21.16249084 5.79139709 C22.38894821 6.16352829 23.61540558 6.53565948 24.87902832 6.91906738 C27.45238166 7.70026801 30.02472395 8.48468473 32.59632874 9.2716217 C35.89675599 10.28140567 39.19931313 11.28400843 42.50259495 12.28440952 C45.66107194 13.24175188 48.81798759 14.20420795 51.97499084 15.16639709 C53.16339066 15.52681595 54.35179047 15.8872348 55.57620239 16.25857544 C56.66501205 16.59239731 57.75382172 16.92621918 58.87562561 17.27015686 C59.83807693 17.56390701 60.80052826 17.85765717 61.79214478 18.16030884 C63.97108459 18.91249084 63.97108459 18.91249084 64.97108459 19.91249084 C65.31840196 21.48855282 65.62422936 23.07386163 65.90858459 24.66249084 C66.59850993 28.28330202 67.40328911 31.55292908 68.97108459 34.91249084 C64.87150419 39.12737195 60.65767228 43.12367007 56.20545959 46.96327209 C53.59257083 49.24269778 51.03178439 51.57461438 48.47108459 53.91249084 C44.71421229 57.33908866 40.928652 60.72186445 37.08045959 64.04530334 C35.42143403 65.5138482 33.79199829 67.0158258 32.17420959 68.52967834 C31.68565491 68.98536194 31.19710022 69.44104553 30.69374084 69.91053772 C29.28652169 71.22630629 27.88643369 72.54968927 26.48670959 73.87342834 C23.47429968 76.31516433 21.73121952 76.80935794 17.97108459 77.02967834 C15.49523773 76.72986876 14.08468491 76.26987102 11.97108459 74.91249084 C10.83454895 72.34184265 10.83454895 72.34184265 9.95057678 69.1063385 C9.6200531 67.93129761 9.28952942 66.75625671 8.94898987 65.54560852 C8.62628113 64.34667969 8.30357239 63.14775085 7.97108459 61.91249084 C7.36203147 59.78370096 6.7517102 57.65527343 6.14002991 55.52723694 C5.52442021 53.33069443 4.91087403 51.13357274 4.29920959 48.93592834 C3.97192871 47.76285126 3.64464783 46.58977417 3.30744934 45.38114929 C2.62423095 42.92945786 1.94196849 40.47749984 1.26063538 38.02528381 C0.21379191 34.26126936 -0.8391122 30.49898207 -1.89219666 26.73670959 C-2.55793102 24.3448854 -3.22330868 21.9529619 -3.88829041 19.56092834 C-4.20384888 18.43600983 -4.51940735 17.31109131 -4.8445282 16.15208435 C-5.13192871 15.11315033 -5.41932922 14.07421631 -5.71543884 13.00379944 C-5.96984741 12.09036774 -6.22425598 11.17693604 -6.4863739 10.23582458 C-7.02891541 7.91249084 -7.02891541 7.91249084 -7.02891541 4.91249084 C-3.64899821 -0.15738495 -3.64899821 -0.15738495 0 0 Z " fill="#E9FAFE" transform="translate(105.02891540527344,261.08750915527344)"/>
<path d="M0 0 C1.21558594 -0.00322266 2.43117188 -0.00644531 3.68359375 -0.00976562 C11.80013825 0.03787685 19.52084197 0.86873891 27.5 2.3125 C28.58555176 2.49997803 29.67110352 2.68745605 30.78955078 2.88061523 C34.13414809 3.46458084 37.47375304 4.07100087 40.8125 4.6875 C41.98079346 4.90301514 43.14908691 5.11853027 44.3527832 5.34057617 C53.16816494 6.99708023 61.84919768 8.94114684 70.5 11.3125 C70.5 11.9725 70.5 12.6325 70.5 13.3125 C68.85546875 14.93359375 68.85546875 14.93359375 66.6875 16.75 C63.70539891 19.24625008 63.70539891 19.24625008 60.9921875 22.01953125 C58.20199869 24.43720794 55.03074119 23.53667404 51.5 23.3125 C50.84 22.9825 50.18 22.6525 49.5 22.3125 C45.28892021 21.60628962 41.05279058 21.07641972 36.81860352 20.52807617 C34.73262528 20.25588815 32.64863808 19.97109584 30.56445312 19.68554688 C17.23526484 17.91329908 4.76205861 17.96245124 -8.5 20.3125 C-9.55960937 20.48394531 -10.61921875 20.65539062 -11.7109375 20.83203125 C-34.01133991 25.0993922 -52.63377002 40.3854785 -65.34521484 58.66870117 C-70.67619209 66.55736781 -75.19277249 74.83038997 -79.5 83.3125 C-83.50735217 82.71139717 -86.05469371 80.64647972 -89.25 78.25 C-90.72726563 77.14978516 -90.72726563 77.14978516 -92.234375 76.02734375 C-92.98203125 75.46144531 -93.7296875 74.89554687 -94.5 74.3125 C-89.68430066 60.60627881 -82.51239895 47.6782333 -73.5 36.3125 C-72.80261719 35.38953125 -72.10523438 34.4665625 -71.38671875 33.515625 C-53.98577292 11.138565 -28.03423209 -0.37160965 0 0 Z " fill="#0A008E" transform="translate(271.5,405.6875)"/>
<path d="M0 0 C0.66 0 1.32 0 2 0 C1.84144531 0.69609375 1.68289062 1.3921875 1.51953125 2.109375 C-0.3910849 12.73987088 0.95349277 20.9955054 6.9375 29.875 C9.11372879 32.11717511 11.2447809 33.54585658 14 35 C13.34 33.88625 12.68 32.7725 12 31.625 C8.94271979 25.46691959 9.07255713 19.26706289 11.0625 12.75 C13.14842357 7.80596001 17.25854053 4.37072974 22 2 C28.44601568 1.49821435 34.58486659 1.03770726 40 5 C45.27549812 10.39539581 47.048529 14.95384274 47.4375 22.375 C47.36740027 28.06865625 45.51289975 31.62142138 42 36 C43.66728734 35.71190255 45.3337967 35.41930221 47 35.125 C48.3921875 34.88136719 48.3921875 34.88136719 49.8125 34.6328125 C53.1102032 34.021385 53.1102032 34.021385 56.71875 32.953125 C71.66520507 29.17042397 90.10774628 31.29190161 103.875 38.1875 C112.74804693 43.75224071 119.36755724 50.62348935 124 60 C124.42796875 60.845625 124.8559375 61.69125 125.296875 62.5625 C131.86637751 76.83697458 134.06834992 92.87450057 136.5625 108.25 C141.30698043 137.34875783 148.58831553 163.60198485 169.51953125 185.37890625 C171.83306824 187.82360439 173.93801352 190.3420081 176 193 C160.66276146 186.57976061 150.02452873 165.78015474 143.94047546 151.34126282 C142.50368457 147.76444957 141.28967735 144.1378668 140.13671875 140.4609375 C139.88272812 139.65335495 139.62873749 138.8457724 139.36705017 138.01371765 C135.79556372 126.38491045 133.10304683 114.50932548 130.32543945 102.67114258 C125.63443143 82.76269709 120.60503152 62.50801529 103 50 C88.38235084 41.07911295 69.49548617 40.19998296 53.1640625 44.0859375 C49.13877259 45.11424081 45.14178285 46.23449709 41.14941406 47.38330078 C30.28992861 50.49905047 18.53003637 53.85377372 7.6875 49.0625 C0.81818152 45.07963782 -4.45874212 39.60013403 -7 32 C-9.44147039 21.72679993 -7.85334584 12.46016151 -2.4375 3.375 C-1.18359375 1.3984375 -1.18359375 1.3984375 0 0 Z " fill="#1A6FD6" transform="translate(135,195)"/>
<path d="M0 0 C1.11787692 0.8202093 2.23358741 1.64337571 3.34765625 2.46875 C23.96194383 17.69651477 42.57335944 29.60589751 68.76074219 31.57861328 C76.01108137 32.22186075 82.8881602 33.90260589 89.91015625 35.78125 C91.5336499 36.20748657 91.5336499 36.20748657 93.18994141 36.64233398 C114.3669978 42.51794507 125.43535585 54.67017773 135.97265625 73.21875 C136.41601318 74.0228833 136.85937012 74.8270166 137.31616211 75.65551758 C139.48064747 79.52389989 141.63760937 82.94311316 144.62109375 86.234375 C148.90719443 91.04180491 148.46886748 95.49914835 148.41015625 101.78125 C148.40113281 103.03550781 148.39210938 104.28976563 148.3828125 105.58203125 C148.36541016 107.01095703 148.36541016 107.01095703 148.34765625 108.46875 C144.91366312 104.42968257 142.29097461 100.16888323 139.66015625 95.59375 C138.77375194 94.0740353 137.88702675 92.55450773 137 91.03515625 C135.70995033 88.81634579 134.42156491 86.59662183 133.13720703 84.37451172 C124.15454314 68.8693077 114.76726887 55.07144419 97.34765625 48.46875 C85.90636338 46.14177933 74.09268377 45.919014 62.45800781 45.51513672 C45.13907345 44.88991795 29.15932216 40.99571222 16.34765625 28.46875 C12.70335585 24.20710909 9.1865138 19.843941 5.75390625 15.41015625 C-2.01554838 5.71991978 -13.44833827 0.9029785 -25.53515625 -0.98046875 C-46.52491557 -1.88898072 -67.11856644 11.85116177 -84.86547852 21.50854492 C-93.93573417 26.35164481 -104.01061013 30.65496111 -114.40234375 30.53125 C-115.3871875 30.52222656 -116.37203125 30.51320312 -117.38671875 30.50390625 C-118.134375 30.49230469 -118.88203125 30.48070312 -119.65234375 30.46875 C-119.65234375 30.13875 -119.65234375 29.80875 -119.65234375 29.46875 C-118.82734375 29.345 -118.00234375 29.22125 -117.15234375 29.09375 C-100.26968942 26.0789903 -87.07660105 16.98657279 -72.859375 7.81640625 C-49.74526947 -7.08046183 -24.9792276 -17.64013965 0 0 Z " fill="#112EA8" transform="translate(303.65234375,36.53125)"/>
<path d="M0 0 C19.25125283 14.35616123 38.29902807 22.39454991 62.33398438 25.07275391 C81.96773518 27.30751701 99.56010951 32.74909971 113.75 47.125 C114.3996875 47.7128125 115.049375 48.300625 115.71875 48.90625 C118.52614771 51.97279211 120.53379266 55.35630242 122.625 58.9375 C123.06191162 59.68362549 123.49882324 60.42975098 123.94897461 61.19848633 C128.92834211 69.9061656 133.3958715 79.09836312 134.75 89.125 C131.12899366 85.72288006 128.47113046 82.39216709 125.9375 78.125 C125.60057129 77.56538574 125.26364258 77.00577148 124.91650391 76.42919922 C123.85442488 74.66497616 122.80139079 72.89561008 121.75 71.125 C111.17595553 53.3550738 101.18389001 43.80051295 80.75 38.125 C79.79867187 37.8468042 79.79867187 37.8468042 78.828125 37.56298828 C71.06429436 35.30445523 63.55824537 33.91372731 55.5 33.25 C32.11484533 31.18541197 14.59495154 20.89943894 -3.91796875 7.2890625 C-16.91912466 -2.24837621 -28.39317879 -9.65478573 -45.25 -7.875 C-61.68261241 -4.98475069 -74.94340012 3.16238791 -88.75 12.125 C-112.59732108 27.6005973 -133.69479904 35.02927088 -162.25 29.125 C-165.3356655 28.26319969 -168.25069222 27.26266847 -171.25 26.125 C-169.64443807 23.70889327 -168.45794809 21.93292304 -166.25 20.125 C-163.30889905 20.00285592 -161.36993199 20.16625089 -158.5625 20.75 C-157.0443436 20.99563281 -155.52472028 21.23233514 -154.00390625 21.4609375 C-152.83045654 21.64027832 -152.83045654 21.64027832 -151.63330078 21.82324219 C-124.61309591 25.24436217 -104.16172052 15.1475206 -82.50878906 0.19042969 C-53.20622321 -19.9678502 -28.59187079 -21.47957871 0 0 Z " fill="#5283CF" transform="translate(315.25,35.875)"/>
<path d="M0 0 C2.35247328 0.88695724 4.06506428 2.01443762 6.08447266 3.51196289 C7.22239258 4.34630859 7.22239258 4.34630859 8.38330078 5.19750977 C9.16769531 5.78209961 9.95208984 6.36668945 10.76025391 6.96899414 C12.30458311 8.11000232 13.85015586 9.24932931 15.39697266 10.38696289 C16.15929199 10.94947754 16.92161133 11.51199219 17.70703125 12.09155273 C20.87237309 14.35269786 24.13839799 16.44345017 27.43139648 18.51318359 C27.97304443 18.93172607 28.51469238 19.35026855 29.07275391 19.78149414 C29.07275391 20.44149414 29.07275391 21.10149414 29.07275391 21.78149414 C25.92732541 22.88681631 22.78133611 23.99053412 19.63525391 25.09399414 C18.31750977 25.55708984 18.31750977 25.55708984 16.97314453 26.02954102 C11.35629097 27.99854872 5.72549393 29.91798195 0.07275391 31.78149414 C0.66564209 31.99580078 1.25853027 32.21010742 1.86938477 32.4309082 C18.40621739 38.51836352 34.13109692 47.70453878 46.07275391 60.78149414 C43.03302572 60.78149414 41.81144004 60.36965893 39.11572266 59.13696289 C37.95133667 58.61791382 37.95133667 58.61791382 36.76342773 58.08837891 C35.93738037 57.71898193 35.11133301 57.34958496 34.26025391 56.96899414 C26.24425663 53.48573016 18.73935763 51.1255129 10.07275391 49.78149414 C8.12369141 49.44118164 8.12369141 49.44118164 6.13525391 49.09399414 C-8.58287396 47.64073362 -24.01483497 49.09173297 -38.30615234 52.90649414 C-42.43313286 53.90373647 -44.83124554 53.63482759 -48.92724609 52.78149414 C-50.06467407 49.69418962 -50.29133457 47.59499734 -48.93237305 44.55859375 C-45.07599008 38.09589924 -40.641162 32.93674257 -35.23974609 27.71899414 C-34.44028564 26.93459961 -33.6408252 26.15020508 -32.81713867 25.34204102 C-27.10089401 19.78597843 -21.25931402 14.62803293 -14.92724609 9.78149414 C-13.78722573 8.85425963 -12.64932849 7.92441073 -11.51318359 6.99243164 C-10.33925311 6.04643785 -9.16478188 5.10111467 -7.98974609 4.15649414 C-7.44535889 3.70532227 -6.90097168 3.25415039 -6.34008789 2.78930664 C-2.45090418 -0.27787677 -2.45090418 -0.27787677 0 0 Z " fill="#2132C1" transform="translate(105.92724609375,402.218505859375)"/>
<path d="M0 0 C1.09626491 0.85349991 2.17334151 1.73198552 3.234375 2.62890625 C4.70082866 3.57265851 6.17981892 4.49709395 7.66796875 5.40625 C8.47057129 5.91373779 9.27317383 6.42122559 10.10009766 6.9440918 C21.79071897 14.3187053 33.80010462 20.96927732 46.02392578 27.41479492 C48.234375 28.62890625 48.234375 28.62890625 51.234375 30.62890625 C50.74239624 31.55956909 50.74239624 31.55956909 50.24047852 32.5090332 C48.75693201 35.31859308 47.27686666 38.12997228 45.796875 40.94140625 C45.0224707 42.40610352 45.0224707 42.40610352 44.23242188 43.90039062 C43.73935547 44.83818359 43.24628906 45.77597656 42.73828125 46.7421875 C42.28267822 47.60626221 41.8270752 48.47033691 41.35766602 49.3605957 C40.13389059 51.70099298 40.13389059 51.70099298 39.234375 54.62890625 C36.07361756 53.99631083 33.77275999 52.90116288 31.046875 51.1953125 C30.26570313 50.71126953 29.48453125 50.22722656 28.6796875 49.72851562 C27.87273437 49.22126953 27.06578125 48.71402344 26.234375 48.19140625 C24.63109878 47.19127947 23.0269612 46.19253189 21.421875 45.1953125 C20.36033203 44.5293103 20.36033203 44.5293103 19.27734375 43.84985352 C17.24565984 42.59667482 17.24565984 42.59667482 15.06640625 41.5703125 C12.81270391 40.41222665 11.78296547 39.06263615 10.234375 37.06640625 C-0.75774787 24.22297847 -18.66066823 14.38235164 -34.765625 9.62890625 C-29.24932836 6.71755053 -23.32278561 4.8208189 -17.453125 2.75390625 C-16.24205078 2.30015625 -15.03097656 1.84640625 -13.78320312 1.37890625 C-3.75965705 -2.110407 -3.75965705 -2.110407 0 0 Z " fill="#0827BE" transform="translate(138.765625,424.37109375)"/>
<path d="M0 0 C10.62600678 2.43245938 21.21517391 5.01421598 31.79467773 7.640625 C33.26784564 8.00594063 34.74131791 8.37003105 36.21508789 8.73291016 C38.3109495 9.24941468 40.4056031 9.77056104 42.5 10.29296875 C43.7271875 10.5974292 44.954375 10.90188965 46.21875 11.21557617 C49 12 49 12 50 13 C50.04092937 15.33297433 50.04241723 17.66705225 50 20 C37.54801407 26.26587477 25.0328728 32.39780266 12.5 38.5 C10.59761986 39.42700865 8.69527589 40.35409155 6.79296875 41.28125 C2.19572773 43.52168665 -2.40199676 45.76112808 -7 48 C-13.72370517 43.85496217 -13.72370517 43.85496217 -14.73461914 40.72680664 C-14.66879639 39.96231201 -14.60297363 39.19781738 -14.53515625 38.41015625 C-14.47835693 37.54962646 -14.42155762 36.68909668 -14.36303711 35.80249023 C-14.26385986 34.89829346 -14.16468262 33.99409668 -14.0625 33.0625 C-13.98330322 32.13187744 -13.90410645 31.20125488 -13.82250977 30.24243164 C-13.65543412 28.36869368 -13.47163202 26.49636616 -13.27050781 24.62597656 C-13.03071459 22.29816441 -12.86896801 19.98450616 -12.7421875 17.6484375 C-12.02446449 8.90693935 -12.02446449 8.90693935 -9.1953125 6.40234375 C-7.0625 5.375 -7.0625 5.375 -4.97265625 4.7734375 C-2.39534625 3.76292784 -1.48493388 2.28093291 0 0 Z " fill="#E9FAFE" transform="translate(117,129)"/>
<path d="M0 0 C13.64168931 13.75252226 24.69312373 29.90007468 31.8671875 47.9296875 C32.26768311 48.92162109 32.26768311 48.92162109 32.67626953 49.93359375 C37.8214432 63.0493432 40.76234865 76.72796184 43.8671875 90.4296875 C48.12255133 109.20392564 52.32955851 127.42274517 61.6796875 144.41015625 C62.0715625 145.24160156 62.4634375 146.07304687 62.8671875 146.9296875 C62.5371875 147.5896875 62.2071875 148.2496875 61.8671875 148.9296875 C60.46455286 146.80892836 59.0701771 144.68339266 57.6796875 142.5546875 C57.29232422 141.97074219 56.90496094 141.38679687 56.50585938 140.78515625 C50.66837482 131.81183288 46.87816597 122.70694069 43.9296875 112.4296875 C43.58687744 111.25986328 43.24406738 110.09003906 42.89086914 108.88476562 C40.56409597 100.79069809 38.60873969 92.65391731 36.8046875 84.4296875 C29.36270073 50.79623022 11.78535865 15.37141551 -17.9453125 -3.9453125 C-39.5765941 -17.30713854 -64.98142843 -23.21175565 -90.1328125 -18.0703125 C-99.56560806 -15.7036207 -107.10819088 -11.42006024 -115.1328125 -6.0703125 C-115.6328125 -8.6328125 -115.6328125 -8.6328125 -115.1328125 -12.0703125 C-107.43738914 -22.21737517 -93.04729204 -25.98220784 -81.1328125 -28.0703125 C-80.33875 -28.225 -79.5446875 -28.3796875 -78.7265625 -28.5390625 C-50.80933755 -32.74576763 -19.64790388 -19.14940924 0 0 Z " fill="#42B9F8" transform="translate(251.1328125,206.0703125)"/>
<path d="M0 0 C2.4375 1.3125 2.4375 1.3125 4 3 C4 3.99 4 4.98 4 6 C5.08716309 5.91359253 5.08716309 5.91359253 6.19628906 5.82543945 C29.49085768 4.21527559 29.49085768 4.21527559 35.82714844 9.69018555 C38.03257716 12.01103221 40.01086304 14.49328149 42 17 C42.9597876 17.64042236 43.9195752 18.28084473 44.90844727 18.94067383 C49.51370443 22.73136259 50.32748142 28.28782166 51.76171875 33.84375 C52.07905472 35.00442993 52.39639069 36.16510986 52.7233429 37.36096191 C53.73161378 41.06885397 54.7095922 44.78399854 55.6875 48.5 C56.35550475 50.96926943 57.02540752 53.43802623 57.69726562 55.90625 C60.66994659 66.89596917 63.49954355 77.89215534 66 89 C66.94568848 88.98598145 67.89137695 88.97196289 68.86572266 88.95751953 C72 89 72 89 74.1484375 89.6796875 C76.08075417 90.225804 76.08075417 90.225804 77.7890625 88.8828125 C78.39492187 88.30273438 79.00078125 87.72265625 79.625 87.125 C80.31722656 86.47917969 81.00945312 85.83335937 81.72265625 85.16796875 C82.47417969 84.45253906 83.22570312 83.73710937 84 83 C86.52747139 80.70984986 89.06686804 78.43359423 91.609375 76.16015625 C93.09820205 74.81485991 94.57038871 73.45061397 96.015625 72.05859375 C97.8125 70.375 97.8125 70.375 101 68 C103.9375 68.125 103.9375 68.125 106 69 C102.36121374 73.54848283 98.42286488 77.57370459 94.125 81.5 C93.34672852 82.21905518 93.34672852 82.21905518 92.55273438 82.95263672 C90.25997746 85.04811323 87.96700526 87.02376227 85.4453125 88.83984375 C83.22205753 90.45783536 81.56513288 91.73419717 80 94 C79.62561456 97.13973241 79.74820137 100.03585366 79.9609375 103.1875 C80 106 80 106 78.375 109.5625 C75.13327971 112.88952871 72.56520252 114.71913841 67.859375 115.234375 C63.02263395 115.135666 60.31902346 113.91485611 56.9375 110.4375 C54.76130966 107.60845256 53.51983297 105.46186033 53.3125 101.875 C54.23150283 96.69516584 56.32860084 93.67139916 60 90 C59.67100239 82.45836239 57.26568168 75.00341952 55.12890625 67.8125 C53.90544887 63.68068545 52.7621555 59.53114038 51.625 55.375 C50.26707237 50.4218945 48.85768279 45.49114589 47.34765625 40.58203125 C47.07163574 39.68242676 46.79561523 38.78282227 46.51123047 37.85595703 C45.97353568 36.1141064 45.42985501 34.37408909 44.87939453 32.63623047 C43.65133155 28.6581461 42.63206936 25.21836753 43 21 C41.783125 20.938125 40.56625 20.87625 39.3125 20.8125 C35.89783536 20.38340055 34.97750629 19.98239623 32.125 17.75 C30 15 30 15 28 10 C20.08 10 12.16 10 4 10 C3.34 11.32 2.68 12.64 2 14 C-1.27057143 16.18038095 -2.20519469 16.63246755 -6 16 C-9.62336332 13.3428669 -10.85568506 11.91399461 -11.5625 7.4375 C-11 4 -11 4 -9.4375 1.5625 C-6.08147594 -0.58879747 -3.91578329 -0.48947291 0 0 Z " fill="#2049B2" transform="translate(51,247)"/>
<path d="M0 0 C0.81597656 0.43828125 1.63195312 0.8765625 2.47265625 1.328125 C11.60025386 6.21828543 20.7706659 11.02274844 29.96508789 15.78613281 C35.04097277 18.42352134 40.05884587 21.11766009 45 24 C42.50767918 25.99830723 40.01164231 27.99084987 37.5 29.96484375 C32.05837828 34.20462752 32.05837828 34.20462752 27.1875 39.0625 C26.465625 39.701875 25.74375 40.34125 25 41 C21.4684795 40.63080057 18.67737386 39.51410785 15.55078125 37.8828125 C14.7105542 37.44582031 13.87032715 37.00882812 13.00463867 36.55859375 C12.11623291 36.08550781 11.22782715 35.61242187 10.3125 35.125 C9.39509033 34.63902344 8.47768066 34.15304687 7.5324707 33.65234375 C1.16684538 30.24302854 -5.1153851 26.70683816 -11.3125 23 C-12.08875732 22.54383301 -12.86501465 22.08766602 -13.66479492 21.61767578 C-15.49829386 20.49733228 -17.25860277 19.2587389 -19 18 C-19 17.01 -19 16.02 -19 15 C-17.70847439 14.09244146 -16.40383217 13.2008538 -15.05859375 12.375 C-9.71610357 8.80658151 -4.54314042 4.54314042 0 0 Z " fill="#0D3DC6" transform="translate(181,393)"/>
<path d="M0 0 C2.33740324 0.90138411 4.06253471 2.03378274 6.07495117 3.52612305 C7.21287109 4.36046875 7.21287109 4.36046875 8.3737793 5.21166992 C9.15817383 5.79625977 9.94256836 6.38084961 10.75073242 6.9831543 C12.29506162 8.12416248 13.84063438 9.26348947 15.38745117 10.40112305 C16.14977051 10.9636377 16.91208984 11.52615234 17.69750977 12.10571289 C20.86285161 14.36685801 24.1288765 16.45761032 27.421875 18.52734375 C27.96352295 18.94588623 28.5051709 19.36442871 29.06323242 19.7956543 C29.06323242 20.4556543 29.06323242 21.1156543 29.06323242 21.7956543 C22.44778075 24.29115238 15.79129194 26.62168143 9.06323242 28.7956543 C7.97913086 29.15014648 6.8950293 29.50463867 5.77807617 29.86987305 C2.10930838 30.65010873 -0.34298077 30.71740034 -3.66333008 28.79711914 C-7.48068233 26.19864427 -10.9600762 23.25905153 -14.38891602 20.1730957 C-16.50227562 18.29240566 -18.71167284 16.54156197 -20.93676758 14.7956543 C-18.33436394 12.66848774 -15.72954362 10.54430149 -13.12426758 8.4206543 C-12.3862793 7.81737305 -11.64829102 7.2140918 -10.88793945 6.5925293 C-10.17573242 6.01245117 -9.46352539 5.43237305 -8.72973633 4.8347168 C-8.07513428 4.30056152 -7.42053223 3.76640625 -6.74609375 3.21606445 C-2.33556002 -0.24642175 -2.33556002 -0.24642175 0 0 Z " fill="#233FC6" transform="translate(105.936767578125,402.204345703125)"/>
<path d="M0 0 C0.76699219 0.44988281 1.53398437 0.89976562 2.32421875 1.36328125 C19.67310167 11.41797646 37.00882483 20.24722781 55.88134766 27.12133789 C58 28 58 28 61 30 C48.74822579 29.60998743 36.99645467 28.53560791 25 26 C23.96045166 25.78537109 23.96045166 25.78537109 22.89990234 25.56640625 C14.5151383 23.80978361 6.33103204 21.59925372 -1.8125 18.9375 C-2.57167725 18.69217529 -3.33085449 18.44685059 -4.11303711 18.1940918 C-7.89023459 16.9167807 -10.9622191 15.68696106 -14 13 C-13.49210937 12.56429688 -12.98421875 12.12859375 -12.4609375 11.6796875 C-8.13240118 7.93477405 -3.99693056 4.09685382 0 0 Z " fill="#0C6BF9" transform="translate(348,389)"/>
<path d="M0 0 C4.72351726 1.88940691 7.76753682 4.03326449 11.5 7.3125 C12.10875977 7.84302979 12.71751953 8.37355957 13.34472656 8.92016602 C24.10787911 18.4081492 33.58282602 28.37553854 42 40 C42.56976563 40.78246094 43.13953125 41.56492188 43.7265625 42.37109375 C44.83110786 43.9044989 45.91869005 45.4501224 47 47 C46.505 47.99 46.505 47.99 46 49 C45.13375 48.01 44.2675 47.02 43.375 46 C30.34257274 33.04639791 12.44165134 29.75724309 -5 27 C-3.68 26.67 -2.36 26.34 -1 26 C-0.67 17.42 -0.34 8.84 0 0 Z " fill="#43B6ED" transform="translate(383,35)"/>
<path d="M0 0 C18.32810935 2.41221568 33.73966871 7.56584414 47 21 C47.6496875 21.5878125 48.299375 22.175625 48.96875 22.78125 C51.77614771 25.84779211 53.78379266 29.23130242 55.875 32.8125 C56.53036743 33.93168823 56.53036743 33.93168823 57.19897461 35.07348633 C62.17834211 43.7811656 66.6458715 52.97336312 68 63 C64.37899366 59.59788006 61.72113046 56.26716709 59.1875 52 C58.85057129 51.44038574 58.51364258 50.88077148 58.16650391 50.30419922 C57.10442488 48.53997616 56.05139079 46.77061008 55 45 C44.39273291 27.17424242 34.60013886 17.70877682 14 12 C12.94570801 11.70585205 12.94570801 11.70585205 11.87011719 11.40576172 C7.59202127 10.22256151 3.30231965 9.09236201 -1 8 C-0.67 5.36 -0.34 2.72 0 0 Z " fill="#2775CC" transform="translate(382,62)"/>
<path d="M0 0 C3.51223473 2.34148982 5.00016463 4.04121364 6.8125 7.875 C7.61698032 12.92352445 7.38892572 16.70079945 5.125 21.3125 C1.49096289 25.33940599 -0.65463885 26.72901322 -6.125 27.25 C-11.26301549 27.02744942 -14.65294401 25.16725768 -18.5625 21.875 C-21.05039087 17.28197071 -20.92256976 12.98298477 -20.1875 7.875 C-18.3817807 3.98575842 -16.92002453 2.36334969 -13.375 0 C-8.48257542 -1.72673809 -4.89242458 -1.72673809 0 0 Z " fill="#E7F9FE" transform="translate(170.1875,202.125)"/>
<path d="M0 0 C3.18766143 2.03812866 4.96728155 3.67249712 6.3125 7.3125 C6.98885093 12.35976882 6.88872855 16.13870111 4.625 20.75 C0.97866794 24.79053012 -1.6819373 26.46688768 -7.125 26.75 C-11.64028304 26.5847151 -14.24965039 25.3410818 -17.6875 22.3125 C-21.07198332 18.47675223 -21.20724499 14.67785971 -21.03125 9.75 C-20.50530954 6.02060402 -19.26866456 4.02603197 -16.6875 1.3125 C-10.85406214 -1.92829881 -6.04331338 -3.11667734 0 0 Z " fill="#E8F9FE" transform="translate(160.6875,81.6875)"/>
<path d="M0 0 C2.28853709 2.94829553 4.25058632 5.99918366 6.1875 9.1875 C9.61846896 14.64186091 13.56806245 19.33783193 18 24 C17.67 24.66 17.34 25.32 17 26 C-1.81 26 -20.62 26 -40 26 C-40 25.67 -40 25.34 -40 25 C-38.90945313 24.77957031 -38.90945313 24.77957031 -37.796875 24.5546875 C-24.79631515 21.65456261 -15.43131958 16.36222566 -6 7 C-5.44054687 6.46632813 -4.88109375 5.93265625 -4.3046875 5.3828125 C-2.52940529 3.66839711 -1.1108863 2.22177259 0 0 Z " fill="#0D28B3" transform="translate(325,474)"/>
<path d="M0 0 C0.33 0 0.66 0 1 0 C1.08636719 1.07636719 1.17273438 2.15273438 1.26171875 3.26171875 C2.52950148 17.11017459 6.3061359 28.28734778 14 40 C0.29178168 41.66048405 -7.8127619 37.75353136 -19 30 C-18.67821777 29.49718506 -18.35643555 28.99437012 -18.02490234 28.47631836 C-15.35254605 24.25824577 -12.90200513 20.0109905 -10.625 15.5625 C-7.62698862 9.92150491 -4.3230894 4.72608926 0 0 Z " fill="#0516B8" transform="translate(209,460)"/>
<path d="M0 0 C5.10734356 2.73054948 8.02884258 6.1395642 10.1171875 11.46484375 C11.38528181 17.91098981 12.18866426 23.69014742 8.8046875 29.58984375 C6.06111001 33.35748637 3.25061068 36.5042737 -1.1328125 38.27734375 C-7.70047818 39.28477329 -13.43176092 38.6979747 -19.1328125 35.27734375 C-22.89494052 31.69579787 -25.82802496 27.75817257 -26.46875 22.54296875 C-26.55474396 15.90423508 -26.18849021 10.71116436 -22.1328125 5.27734375 C-15.86173908 -0.680176 -8.43695357 -2.85867474 0 0 Z M-19.5703125 8.83984375 C-21.66735455 13.45333625 -21.93585646 17.28873733 -21.1328125 22.27734375 C-18.96978221 26.68351656 -16.72166326 29.44180345 -12.1328125 31.27734375 C-7.39533293 31.98796569 -4.07460051 31.74823776 0.2421875 29.58984375 C3.66811239 26.57176706 5.59595341 24.56023064 6.1484375 19.91015625 C6.32433827 14.9702764 6.33755373 11.08355187 2.8671875 7.27734375 C-0.32983194 4.83113948 -3.13226867 3.42325639 -7.1328125 2.83984375 C-12.32731563 3.59737546 -15.92149202 5.00390427 -19.5703125 8.83984375 Z " fill="#1854CC" transform="translate(161.1328125,76.72265625)"/>
<path d="M0 0 C3.78171013 2.03630545 7.09528802 4.08475871 9 8 C9.78135113 12.05671193 9.89812436 15.47770745 7.7578125 19.10546875 C4.36241818 23.2019022 2.15998528 24.7962278 -3.3125 25.3125 C-7.75886282 24.93568959 -9.63948122 23.90226622 -13 21 C-15.89079741 16.89693271 -16.48016954 13.72781852 -15.6484375 8.89453125 C-13.25257194 1.89456258 -6.76215245 -0.68767652 0 0 Z " fill="#1E60BF" transform="translate(73,136)"/>
<path d="M0 0 C4.57595455 0.48810182 8.54408211 1.82190199 12.8125 3.5 C13.95332031 3.9434375 15.09414062 4.386875 16.26953125 4.84375 C19 6 19 6 20 7 C20.40388715 11.11964889 20.24077056 13.51845889 18.375 17.25 C15.23518638 20.88557366 12.71676763 22.70254369 7.859375 23.234375 C3.02263395 23.135666 0.31902346 21.91485611 -3.0625 18.4375 C-5.24475619 15.5990409 -6.49714263 13.40717505 -6.75 9.8125 C-5.86548405 5.31621058 -4.51960451 3.83285241 -1 1 C-0.67 0.67 -0.34 0.34 0 0 Z " fill="#11209E" transform="translate(111,339)"/>
<path d="M0 0 C1.0209375 0.433125 1.0209375 0.433125 2.0625 0.875 C-1.57593657 5.42304572 -5.51249431 9.45144612 -9.8125 13.375 C-10.33134766 13.84929443 -10.85019531 14.32358887 -11.38476562 14.81225586 C-15.01332695 18.10078148 -18.74161079 21.23916732 -22.609375 24.2421875 C-24.42812784 26.47818364 -24.18418076 28.07612212 -23.9375 30.875 C-25.8339649 30.25191903 -27.72964535 29.62645015 -29.625 29 C-30.68074219 28.65195312 -31.73648438 28.30390625 -32.82421875 27.9453125 C-34.80383409 27.26474211 -36.76634347 26.53033242 -38.69921875 25.7265625 C-41.32398225 24.72796138 -42.36150699 24.8446028 -44.9375 25.875 C-45.9275 26.535 -46.9175 27.195 -47.9375 27.875 C-46.78576645 25.40699953 -45.88966435 23.82716435 -43.9375 21.875 C-44.10171481 19.02742446 -44.10171481 19.02742446 -44.75 15.875 C-44.94207031 14.8025 -45.13414063 13.73 -45.33203125 12.625 C-45.80775129 9.9308034 -45.80775129 9.9308034 -46.9375 7.875 C-46.977492 5.87539988 -46.98096799 3.87452758 -46.9375 1.875 C-44.58203125 2.3359375 -44.58203125 2.3359375 -41.9375 3.875 C-40.69586179 6.64770976 -40.18290596 9.52450155 -39.625 12.5 C-39.37266602 13.70269531 -39.37266602 13.70269531 -39.11523438 14.9296875 C-38.70318958 16.90750253 -38.31776394 18.8908295 -37.9375 20.875 C-36.57625 20.8440625 -36.57625 20.8440625 -35.1875 20.8125 C-31.9375 20.875 -31.9375 20.875 -29.7890625 21.5546875 C-27.85674583 22.100804 -27.85674583 22.100804 -26.1484375 20.7578125 C-25.54257813 20.17773438 -24.93671875 19.59765625 -24.3125 19 C-23.27416016 18.03126953 -23.27416016 18.03126953 -22.21484375 17.04296875 C-21.46332031 16.32753906 -20.71179688 15.61210937 -19.9375 14.875 C-17.41002861 12.58484986 -14.87063196 10.30859423 -12.328125 8.03515625 C-10.83929795 6.68985991 -9.36711129 5.32561397 -7.921875 3.93359375 C-3.56184186 -0.15156774 -3.56184186 -0.15156774 0 0 Z " fill="#1C38A9" transform="translate(154.9375,315.125)"/>
<path d="M0 0 C3.03978021 0.68164768 4.80055419 2.23591662 6.93359375 4.43359375 C8.48383839 7.53408303 8.2235139 10.01253593 7.93359375 13.43359375 C6.1379697 16.18688396 4.88104453 17.95986836 1.93359375 19.43359375 C-2.46575106 19.94121046 -4.60866011 19.69159612 -8.50390625 17.49609375 C-11.49864523 13.91701546 -11.91955396 12.13854882 -11.578125 7.59375 C-10.11856088 1.43238391 -5.77821305 -0.36045563 0 0 Z " fill="#1F67C3" transform="translate(91.06640625,68.56640625)"/>
<path d="M0 0 C2.69990662 1.79993774 4.5418865 3.083773 6 6 C6.39447548 10.18144011 6.45035186 12.30946048 4.125 15.875 C1.39955109 18.60044891 0.56499391 18.94669869 -3.3125 19.3125 C-7.57536111 18.95124058 -9.01992054 17.98007946 -12 15 C-13.56935594 11.86128812 -13.35201103 9.46144178 -13 6 C-8.98136166 1.13533254 -6.3151598 -0.61913331 0 0 Z " fill="#1633A7" transform="translate(13,214)"/>
<path d="M0 0 C4.08654701 0.30766148 6.41388594 0.50709444 9.63671875 3.1796875 C11.48433971 6.87492941 11.7196566 8.96691448 11.07421875 13.0546875 C9.20028098 16.27551805 7.86241568 18.5499545 4.13671875 19.6015625 C0.00295868 19.88340978 -1.56201872 19.34879338 -4.86328125 16.6796875 C-7.82149592 12.91468701 -8.49178412 10.86571192 -7.92578125 6.0546875 C-5.48828125 3.2421875 -5.48828125 3.2421875 -2.92578125 1.0546875 C-1.92578125 0.0546875 -1.92578125 0.0546875 0 0 Z " fill="#162CA4" transform="translate(71.92578125,307.9453125)"/>
<path d="M0 0 C23.18191805 10.65986403 36.44351635 43.987719 44.859375 66.1015625 C50.06074013 80.26211255 54.02207441 94.45074989 57.54956055 109.10522461 C61.10447121 123.80801773 64.82398832 137.37027237 75 149 C75.804375 150.010625 76.60875 151.02125 77.4375 152.0625 C78.2109375 153.0215625 78.2109375 153.0215625 79 154 C69.38501545 149.72667353 64.87552136 139.20823875 61 130 C57.39018718 120.59048792 54.88140927 110.93217823 52.52246094 101.15380859 C47.78032835 81.60469941 41.65119243 63.18498968 33 45 C32.68836914 44.34257812 32.37673828 43.68515625 32.05566406 43.0078125 C24.70439046 27.76072651 14.63816589 15.02721553 2.421875 3.37890625 C1.62265625 2.59386719 0.8234375 1.80882813 0 1 C0 0.67 0 0.34 0 0 Z " fill="#5A9DE0" transform="translate(342,124)"/>
<path d="M0 0 C0 1.32 0 2.64 0 4 C-6.63729436 7.25988847 -13.27602513 10.51683721 -19.91577148 13.77172852 C-22.17521969 14.87977244 -24.43433597 15.98849346 -26.69311523 17.09790039 C-29.93646998 18.69074003 -33.1810035 20.28115533 -36.42578125 21.87109375 C-37.43836502 22.36902939 -38.45094879 22.86696503 -39.49421692 23.37998962 C-40.43496567 23.84039139 -41.37571442 24.30079315 -42.3449707 24.77514648 C-43.58740288 25.38470436 -43.58740288 25.38470436 -44.85493469 26.00657654 C-47 27 -47 27 -50 28 C-50 26.02 -50 24.04 -50 22 C-43.36824946 18.6922414 -36.72899706 15.39993655 -30.08422852 12.1184082 C-27.82334284 10.99958423 -25.56421694 9.87719697 -23.30688477 8.7512207 C-20.06719599 7.13599936 -16.82145286 5.53358045 -13.57421875 3.93359375 C-12.56163498 3.42533554 -11.54905121 2.91707733 -10.50578308 2.39341736 C-9.56503433 1.93286453 -8.62428558 1.47231171 -7.6550293 0.99780273 C-6.82674118 0.58698959 -5.99845306 0.17617645 -5.14506531 -0.24708557 C-3 -1 -3 -1 0 0 Z " fill="#2B7BCD" transform="translate(162,153)"/>
<path d="M0 0 C4.38448866 2.07045298 5.37179635 5.68526032 7 10 C6.01 10 5.02 10 4 10 C3.731875 10.61875 3.46375 11.2375 3.1875 11.875 C2 14 2 14 -1 16 C-3.375 16.4375 -3.375 16.4375 -6 16 C-9.62336332 13.3428669 -10.85568506 11.91399461 -11.5625 7.4375 C-11 4 -11 4 -9.4375 1.5625 C-6.08147594 -0.58879747 -3.91578329 -0.48947291 0 0 Z " fill="#1A3DAC" transform="translate(51,247)"/>
<path d="M0 0 C4.18068338 1.56653242 6.55907529 4.64981635 9.3125 8 C9.79307861 8.57580811 10.27365723 9.15161621 10.76879883 9.74487305 C14.80116637 14.63220246 18.50420568 19.71454989 22 25 C21.67 25.66 21.34 26.32 21 27 C20.154375 26.030625 19.30875 25.06125 18.4375 24.0625 C15.30406542 20.82505099 12.0705566 18.87509113 8.13891602 16.79467773 C-0.58441627 12.14325952 -0.58441627 12.14325952 -2.00390625 8.23828125 C-1.995 1.995 -1.995 1.995 0 0 Z " fill="#38AFEB" transform="translate(408,57)"/>
<path d="M0 0 C0.66 0 1.32 0 2 0 C2.25579834 0.68400879 2.51159668 1.36801758 2.77514648 2.07275391 C9.50298753 19.89876 16.23407564 34.55666455 29.51953125 48.37890625 C31.83306824 50.82360439 33.93801352 53.3420081 36 56 C19.81520508 49.22496957 9.25646366 27.15667201 3 12 C0 4.31313131 0 4.31313131 0 0 Z " fill="#125ED6" transform="translate(275,332)"/>
<path d="M0 0 C7.71732109 2.52808794 15.35945902 5.25027472 23 8 C23 8.33 23 8.66 23 9 C20.02016976 8.88480819 17.04154208 8.75809198 14.0625 8.625 C13.23169922 8.5940625 12.40089844 8.563125 11.54492188 8.53125 C5.81752631 8.26382297 0.56641529 7.38177413 -5 6 C-3.35 4.02 -1.7 2.04 0 0 Z " fill="#0659F9" transform="translate(386,410)"/>
<path d="M0 0 C-1.30886976 2.92700833 -2.66226088 4.87184315 -5.0390625 7.015625 C-5.90917969 7.80839844 -5.90917969 7.80839844 -6.796875 8.6171875 C-7.40015625 9.15601563 -8.0034375 9.69484375 -8.625 10.25 C-9.54152344 11.08144531 -9.54152344 11.08144531 -10.4765625 11.9296875 C-11.97956565 13.2917841 -13.4891468 14.64661601 -15 16 C-17.475 15.01 -17.475 15.01 -20 14 C-18.85611961 12.85611961 -17.71191726 11.71255995 -16.56640625 10.5703125 C-15.44408974 9.4451972 -14.32755048 8.31430749 -13.21484375 7.1796875 C-12.60769531 6.56351562 -12.00054687 5.94734375 -11.375 5.3125 C-10.80523437 4.73113281 -10.23546875 4.14976562 -9.6484375 3.55078125 C-6.37446293 0.47076252 -4.39376923 -0.23750104 0 0 Z " fill="#1F4BB3" transform="translate(173,301)"/>
<path d="M0 0 C2.9375 0.8125 2.9375 0.8125 4.9375 3.8125 C4.6133631 7.13490324 4.32973697 8.42026303 1.9375 10.8125 C-0.87234248 11.17273622 -2.44491919 11.19582602 -4.875 9.6875 C-6.60708662 6.95262639 -6.46623601 4.97509871 -6.0625 1.8125 C-3.0625 -0.1875 -3.0625 -0.1875 0 0 Z " fill="#204BB4" transform="translate(20.0625,155.1875)"/>
<path d="M0 0 C2 3 2 3 1.8125 5.5625 C1 8 1 8 -2 10 C-5.1875 9.625 -5.1875 9.625 -8 9 C-9.32561852 2.61292897 -9.32561852 2.61292897 -7.9375 0 C-4.99948754 -1.51639353 -3.09843192 -0.92293717 0 0 Z " fill="#235CBD" transform="translate(49,105)"/>
<path d="M0 0 C5.45454545 0.45454545 5.45454545 0.45454545 8 3 C7.8125 6 7.8125 6 7 9 C4 11 4 11 1.4375 10.8125 C-1 10 -1 10 -3 7 C-2.6758631 3.67759676 -2.39223697 2.39223697 0 0 Z " fill="#1D2CA3" transform="translate(20,289)"/>
<path d="M0 0 C4.36352999 2.67936052 7.48168914 6.1422265 9.25 11 C8.92 11.99 8.59 12.98 8.25 14 C7.93546875 13.45730469 7.6209375 12.91460937 7.296875 12.35546875 C4.25617461 7.27237021 2.04752858 3.93250953 -3.75 2 C-9.21470748 1.51897957 -14.10928179 1.28405024 -19.1875 3.5 C-22.41674898 6.65048681 -24.58945265 10.06130306 -26.75 14 C-27.08 13.01 -27.41 12.02 -27.75 11 C-22.0229449 0.26177169 -11.65620631 -5.80861117 0 0 Z " fill="#5EC4F9" transform="translate(172.75,196)"/>
<path d="M0 0 C1.0828125 1.11375 1.0828125 1.11375 2.1875 2.25 C7.36693579 7.31433721 9.94358063 9.56037397 17.4375 9.5 C18.71496094 9.5103125 19.99242187 9.520625 21.30859375 9.53125 C26.71910884 8.75259386 30.38902469 6.01219479 34 2 C32.89100182 6.71324228 30.23602419 9.13190476 26.4140625 11.828125 C21.42321989 14.25086413 16.20961281 13.74067988 10.91796875 12.51953125 C6.18329041 10.8175227 3.77698318 8.00212283 1 4 C0.1875 1.625 0.1875 1.625 0 0 Z " fill="#102EAB" transform="translate(136,102)"/>
<path d="M0 0 C3.97172102 1.41896863 7.25951585 3.775901 10 7 C9.67 7.66 9.34 8.32 9 9 C7.53515625 7.73046875 6.0703125 6.4609375 4.60546875 5.19140625 C0.17745699 1.90541212 -5.77615711 2.36486063 -11 3 C-16.21463064 5.08067216 -19.82872302 8.37522107 -23 13 C-22.51556325 8.80154817 -19.97807949 5.82015103 -17 3 C-11.56882852 -0.90307916 -6.47831328 -0.78941036 0 0 Z " fill="#62A2E5" transform="translate(159,74)"/>
<path d="M0 0 C0.556875 0.28875 1.11375 0.5775 1.6875 0.875 C2.8321875 1.431875 2.8321875 1.431875 4 2 C4.721875 2.37125 5.44375 2.7425 6.1875 3.125 C10.79311538 4.55785812 15.54952317 5.06542471 20.06640625 3.1015625 C21.74036093 2.116061 23.37359532 1.06214183 25 0 C25.66 0 26.32 0 27 0 C27 0.66 27 1.32 27 2 C21.0761212 6.4429091 16.40929837 7.79946187 9 7 C4.79781995 5.41427168 2.37597862 3.82796555 0 0 Z " fill="#1130AB" transform="translate(150,229)"/>
<path d="M0 0 C1.96742739 2.51306058 3.75301795 5.05474716 5 8 C4.67 8.99 4.34 9.98 4 11 C3.68546875 10.45730469 3.3709375 9.91460937 3.046875 9.35546875 C2.61890625 8.64003906 2.1909375 7.92460937 1.75 7.1875 C1.33234375 6.47980469 0.9146875 5.77210938 0.484375 5.04296875 C-2.46413941 0.98488182 -5.37237734 -0.35316981 -10.25 -1.1875 C-11.14203125 -1.34605469 -12.0340625 -1.50460938 -12.953125 -1.66796875 C-13.62859375 -1.77753906 -14.3040625 -1.88710937 -15 -2 C-15 -2.33 -15 -2.66 -15 -3 C-8.76587538 -4.27516185 -5.14636429 -3.89115349 0 0 Z " fill="#57BBF7" transform="translate(177,199)"/>
<path d="M0 0 C-4.69065985 2.51285349 -8.43024558 3.12583041 -13.75 3.0625 C-14.73484375 3.05347656 -15.7196875 3.04445313 -16.734375 3.03515625 C-17.48203125 3.02355469 -18.2296875 3.01195313 -19 3 C-19 2.67 -19 2.34 -19 2 C-16.77376199 1.46678738 -14.54384996 0.94889881 -12.3125 0.4375 C-11.07113281 0.14746094 -9.82976562 -0.14257812 -8.55078125 -0.44140625 C-5.23888546 -0.96241956 -3.18139847 -0.91852996 0 0 Z " fill="#143CB2" transform="translate(203,64)"/>
<path d="M0 0 C0.66 0 1.32 0 2 0 C0.85569823 3.87302138 -0.23320098 7.00263439 -3 10 C-3.66 10 -4.32 10 -5 10 C-3.85569823 6.12697862 -2.76679902 2.99736561 0 0 Z " fill="#3086DB" transform="translate(135,195)"/>
<path d="M0 0 C-1.59915881 0.69906942 -3.20455045 1.38389468 -4.8125 2.0625 C-5.70582031 2.44535156 -6.59914063 2.82820313 -7.51953125 3.22265625 C-10 4 -10 4 -13 3 C-11.13268754 0.61398964 -10.05536515 0.01413578 -7.0625 -0.75 C-4.26324228 -0.97851083 -2.63775233 -0.75201578 0 0 Z " fill="#2865C9" transform="translate(468,282)"/>
<path d="M0 0 C3.55780196 0.60990891 6.6828589 1.5783681 10 3 C10 3.33 10 3.66 10 4 C7.03 3.67 4.06 3.34 1 3 C0.67 2.01 0.34 1.02 0 0 Z " fill="#2A2FA4" transform="translate(111,358)"/>
<path d="M0 0 C-9.41002278 3.62870159 -9.41002278 3.62870159 -14 2 C-14 1.67 -14 1.34 -14 1 C-12.23103898 0.63659714 -10.45973374 0.28459117 -8.6875 -0.0625 C-7.70136719 -0.25972656 -6.71523438 -0.45695312 -5.69921875 -0.66015625 C-3 -1 -3 -1 0 0 Z " fill="#0F26A6" transform="translate(442,299)"/>
<path d="M0 0 C6.625 0.75 6.625 0.75 10 3 C2.25 3.125 2.25 3.125 0 2 C0 1.34 0 0.68 0 0 Z " fill="#044EF4" transform="translate(399,416)"/>
<path d="M0 0 C0.33 0 0.66 0 1 0 C1 3.3 1 6.6 1 10 C0.01 9.67 -0.98 9.34 -2 9 C-1.34 6.03 -0.68 3.06 0 0 Z " fill="#3C82DC" transform="translate(228,292)"/>
<path d="M0 0 C3.63 0 7.26 0 11 0 C11 0.99 11 1.98 11 3 C10.01 3 9.02 3 8 3 C8 2.34 8 1.68 8 1 C5.36 1 2.72 1 0 1 C0 0.67 0 0.34 0 0 Z " fill="#1139B5" transform="translate(149,112)"/>
</svg>
